<svg width="66" height="66" viewBox="0 0 66 66" fill="none" xmlns="http://www.w3.org/2000/svg">
<path fill-rule="evenodd" clip-rule="evenodd" d="M49.5 49.5C50.9587 49.5 52.3576 48.9205 53.3891 47.8891C54.4205 46.8576 55 45.4587 55 44V35.75C55 34.2913 54.4205 32.8924 53.3891 31.8609C52.3576 30.8295 50.9587 30.25 49.5 30.25H41.25C41.25 28.062 42.1192 25.9635 43.6664 24.4164C45.2135 22.8692 47.312 22 49.5 22H52.25C52.9793 22 53.6788 21.7103 54.1945 21.1945C54.7103 20.6788 55 19.9793 55 19.25C55 18.5207 54.7103 17.8212 54.1945 17.3055C53.6788 16.7897 52.9793 16.5 52.25 16.5H49.5C45.8533 16.5 42.3559 17.9487 39.7773 20.5273C37.1987 23.1059 35.75 26.6033 35.75 30.25V44C35.75 45.4587 36.3295 46.8576 37.3609 47.8891C38.3924 48.9205 39.7913 49.5 41.25 49.5H49.5ZM24.75 49.5C26.2087 49.5 27.6076 48.9205 28.6391 47.8891C29.6705 46.8576 30.25 45.4587 30.25 44V35.75C30.25 34.2913 29.6705 32.8924 28.6391 31.8609C27.6076 30.8295 26.2087 30.25 24.75 30.25H16.5C16.5 28.062 17.3692 25.9635 18.9164 24.4164C20.4635 22.8692 22.562 22 24.75 22H27.5C28.2293 22 28.9288 21.7103 29.4445 21.1945C29.9603 20.6788 30.25 19.9793 30.25 19.25C30.25 18.5207 29.9603 17.8212 29.4445 17.3055C28.9288 16.7897 28.2293 16.5 27.5 16.5H24.75C21.1033 16.5 17.6059 17.9487 15.0273 20.5273C12.4487 23.1059 11 26.6033 11 30.25V44C11 45.4587 11.5795 46.8576 12.6109 47.8891C13.6424 48.9205 15.0413 49.5 16.5 49.5H24.75Z" fill="url(#paint0_linear_708_11760)"/>
<defs>
<linearGradient id="paint0_linear_708_11760" x1="65.5" y1="30.75" x2="11" y2="30.75" gradientUnits="userSpaceOnUse">
<stop stop-color="#57CBFF"/>
<stop offset="0.904" stop-color="#199BD5"/>
</linearGradient>
</defs>
</svg>
