<svg width="49" height="50" viewBox="0 0 49 50" fill="none" xmlns="http://www.w3.org/2000/svg">
<circle cx="24.5" cy="25" r="24.5" fill="#279ED3" fill-opacity="0.1"/>
<g clip-path="url(#clip0_708_13665)">
<path opacity="0.948" fill-rule="evenodd" clip-rule="evenodd" d="M28.5274 12.4756C29.3086 12.4756 30.0899 12.4756 30.8711 12.4756C31.0779 12.5935 31.2 12.7726 31.2373 13.0127C31.2828 13.7315 31.2666 14.4477 31.1885 15.1611C31.1478 15.332 31.042 15.4378 30.8711 15.4785C30.4834 15.5322 30.0927 15.5566 29.6992 15.5518C29.3057 15.5566 28.9151 15.5322 28.5274 15.4785C28.389 15.4053 28.2832 15.2995 28.21 15.1611C28.1329 14.4636 28.1167 13.7637 28.1611 13.0615C28.1759 12.7954 28.298 12.6001 28.5274 12.4756ZM28.918 13.208C29.4388 13.208 29.9596 13.208 30.4805 13.208C30.4805 13.7288 30.4805 14.2497 30.4805 14.7705C29.9596 14.7705 29.4388 14.7705 28.918 14.7705C28.918 14.2497 28.918 13.7288 28.918 13.208Z" fill="url(#paint0_linear_708_13665)"/>
<path opacity="0.937" fill-rule="evenodd" clip-rule="evenodd" d="M32.2383 15.4053C33.4428 15.3971 34.6473 15.4053 35.8516 15.4297C36.0387 15.4867 36.1608 15.6087 36.2178 15.7959C36.2504 17.0166 36.2504 18.2373 36.2178 19.458C36.1608 19.6452 36.0387 19.7672 35.8516 19.8242C34.6309 19.8568 33.4102 19.8568 32.1895 19.8242C31.9977 19.7464 31.8756 19.6081 31.8233 19.4092C31.7907 18.221 31.7907 17.0329 31.8233 15.8447C31.8892 15.6243 32.0276 15.4778 32.2383 15.4053ZM32.5801 16.1865C33.5404 16.1865 34.5006 16.1865 35.461 16.1865C35.461 17.1468 35.461 18.1071 35.461 19.0674C34.5006 19.0674 33.5404 19.0674 32.5801 19.0674C32.5801 18.1071 32.5801 17.1468 32.5801 16.1865Z" fill="url(#paint1_linear_708_13665)"/>
<path opacity="0.933" fill-rule="evenodd" clip-rule="evenodd" d="M26.5742 17.6025C26.9977 17.5944 27.4209 17.6025 27.8438 17.6269C28.0567 17.7356 28.1299 17.9065 28.0635 18.1396C28.0228 18.2454 27.9496 18.3187 27.8438 18.3594C27.5349 18.3838 27.2257 18.3919 26.916 18.3838C26.916 19.4743 26.916 20.5648 26.916 21.6553C28.0065 21.6553 29.097 21.6553 30.1875 21.6553C30.1875 20.5648 30.1875 19.4743 30.1875 18.3838C29.8778 18.3919 29.5686 18.3838 29.2598 18.3594C29.0468 18.2507 28.9736 18.0798 29.0401 17.8467C29.0807 17.7409 29.154 17.6676 29.2598 17.6269C29.6992 17.5944 30.1387 17.5944 30.5781 17.6269C30.7653 17.6839 30.8874 17.806 30.9443 17.9932C30.9769 19.3441 30.9769 20.695 30.9443 22.0459C30.8874 22.233 30.7653 22.3551 30.5781 22.4121C29.2272 22.4447 27.8763 22.4447 26.5254 22.4121C26.3336 22.3343 26.2115 22.1959 26.1592 21.9971C26.1266 20.6787 26.1266 19.3603 26.1592 18.042C26.2416 17.8376 26.3799 17.6911 26.5742 17.6025Z" fill="url(#paint2_linear_708_13665)"/>
<path opacity="0.929" fill-rule="evenodd" clip-rule="evenodd" d="M24.085 37.4756C23.0759 37.4756 22.0668 37.4756 21.0577 37.4756C20.7943 37.3341 20.6071 37.1226 20.4961 36.8408C20.4875 36.2919 20.463 35.7466 20.4229 35.2051C19.8309 35.023 19.2612 34.787 18.7139 34.4971C18.3484 34.8381 17.9903 35.1881 17.6397 35.5469C17.2653 35.7748 16.891 35.7748 16.5167 35.5469C15.89 34.9203 15.2634 34.2936 14.6368 33.667C14.4303 33.334 14.4141 32.9922 14.5879 32.6416C14.9452 32.2436 15.3114 31.853 15.6866 31.4697C15.4045 30.9381 15.1766 30.3848 15.003 29.8096C14.9773 29.7758 14.9448 29.7514 14.9053 29.7363C14.3845 29.7201 13.8637 29.7038 13.3428 29.6875C13.0975 29.605 12.9103 29.4504 12.7813 29.2236C12.726 28.6899 12.7015 28.1527 12.7081 27.6123C12.7162 27.124 12.7243 26.6358 12.7325 26.1475C12.837 25.8476 13.0405 25.6442 13.3428 25.5371C13.8799 25.5209 14.417 25.5046 14.9542 25.4883C15.1605 24.9018 15.4046 24.3321 15.6866 23.7793C15.3713 23.4152 15.0377 23.0652 14.6856 22.7295C14.3926 22.3226 14.3926 21.9157 14.6856 21.5088C15.3315 20.8302 16.0069 20.1873 16.712 19.5801C16.9967 19.4713 17.2734 19.4876 17.542 19.6289C17.9414 19.9958 18.3401 20.362 18.7383 20.7276C19.2783 20.4443 19.8398 20.2084 20.4229 20.0195C20.463 19.4943 20.4874 18.9653 20.4961 18.4326C20.5822 18.1025 20.7857 17.8827 21.1065 17.7734C22.0831 17.7409 23.0596 17.7409 24.0362 17.7734C24.3168 17.875 24.5203 18.0621 24.6465 18.335C24.6791 18.8395 24.6791 19.3441 24.6465 19.8486C24.5719 19.9959 24.4498 20.061 24.2803 20.044C24.0797 20.047 23.9576 19.9493 23.9141 19.751C23.9052 19.3484 23.8808 18.9496 23.8409 18.5547C22.9945 18.5221 22.1481 18.5221 21.3018 18.5547C21.2617 19.0799 21.2373 19.6089 21.2286 20.1416C21.166 20.4157 21.0113 20.6192 20.7647 20.752C20.139 20.9388 19.5368 21.183 18.9581 21.4844C18.6785 21.5383 18.418 21.4895 18.1768 21.3379C17.835 20.9961 17.4932 20.6543 17.1514 20.3125C17.0827 20.2971 17.0176 20.3134 16.9561 20.3613C16.3687 20.9324 15.7991 21.5184 15.2471 22.1192C15.5792 22.5002 15.9292 22.8664 16.2969 23.2178C16.4485 23.459 16.4973 23.7194 16.4434 23.999C16.142 24.5777 15.8978 25.18 15.711 25.8057C15.5782 26.0523 15.3747 26.2069 15.1006 26.2695C14.5679 26.2783 14.039 26.3027 13.5137 26.3428C13.4812 27.1891 13.4812 28.0355 13.5137 28.8818C14.0064 28.9219 14.5028 28.9464 15.003 28.9551C15.3807 29.0017 15.633 29.2051 15.7598 29.5654C15.9337 30.1411 16.1616 30.6945 16.4434 31.2256C16.4911 31.4812 16.4586 31.7253 16.3458 31.958C16.0055 32.3472 15.6474 32.7215 15.2715 33.0811C15.239 33.1136 15.239 33.1462 15.2715 33.1787C15.8595 33.783 16.4617 34.3689 17.0782 34.9365C17.4586 34.605 17.8248 34.2551 18.1768 33.8867C18.351 33.7882 18.5382 33.7313 18.7383 33.7158C19.4584 34.0066 20.1827 34.2914 20.9112 34.5703C21.0727 34.706 21.1785 34.8769 21.2286 35.083C21.2448 35.6039 21.2611 36.1247 21.2774 36.6455C21.314 36.6761 21.3547 36.7005 21.3995 36.7188C22.2154 36.7587 23.0292 36.7506 23.8409 36.6943C23.8815 36.1906 23.9059 35.686 23.9141 35.1807C23.973 34.8617 24.1439 34.6256 24.4268 34.4727C25.0525 34.2858 25.6547 34.0417 26.2334 33.7402C26.4968 33.6898 26.741 33.7386 26.9659 33.8867C27.3077 34.2285 27.6495 34.5703 27.9913 34.9121C28.0401 34.9447 28.0889 34.9447 28.1377 34.9121C28.7155 34.3343 29.2934 33.7565 29.8711 33.1787C29.9037 33.1299 29.9037 33.0811 29.8711 33.0322C29.5293 32.6904 29.1875 32.3486 28.8458 32.0068C28.7114 31.779 28.6626 31.5349 28.6993 31.2744C29.0007 30.6957 29.2448 30.0935 29.4317 29.4678C29.5858 29.1834 29.8218 29.0125 30.1397 28.9551C30.645 28.9469 31.1496 28.9225 31.6534 28.8818C31.7096 28.0702 31.7177 27.2564 31.6778 26.4404C31.6595 26.3957 31.6351 26.355 31.6045 26.3184C30.97 26.294 30.3352 26.2858 29.7002 26.294C29.7084 26.7337 29.7002 27.1732 29.6758 27.6123C29.6046 27.7324 29.5151 27.8382 29.4073 27.9297C28.9066 27.9993 28.402 28.0237 27.8936 28.0029C27.5479 30.6354 26.0831 32.2548 23.4991 32.8613C20.9132 33.1595 19.0008 32.1748 17.7618 29.9072C16.8664 27.7279 17.1756 25.7422 18.6895 23.9502C20.1474 22.5255 21.8808 22.021 23.8897 22.4365C23.8816 22.0618 23.8897 21.6875 23.9141 21.3135C24.0034 21.0372 24.1906 20.9477 24.4756 21.0449C24.5651 21.0693 24.6221 21.1263 24.6465 21.2158C24.6791 21.7692 24.6791 22.3226 24.6465 22.876C24.5396 23.1409 24.3443 23.2711 24.0606 23.2666C21.9598 22.7354 20.2345 23.305 18.8848 24.9756C17.7455 26.7337 17.7455 28.4915 18.8848 30.249C20.3167 32.0121 22.1153 32.541 24.2803 31.8359C26.059 31.0164 27.0111 29.6248 27.1368 27.6611C27.2148 27.4366 27.3694 27.2983 27.6006 27.2461C28.0398 27.2217 28.4792 27.2136 28.919 27.2217C28.9109 26.8145 28.919 26.4076 28.9434 26.001C28.9956 25.7698 29.1339 25.6151 29.3584 25.5371C30.1723 25.5046 30.986 25.5046 31.7999 25.5371C32.0805 25.6386 32.2839 25.8258 32.4102 26.0986C32.4877 27.0245 32.504 27.9523 32.459 28.8818C32.426 29.2824 32.2226 29.5509 31.8487 29.6875C31.3116 29.7038 30.7745 29.7201 30.2374 29.7363C30.0013 30.3213 29.7409 30.8991 29.4561 31.4697C29.7972 31.8353 30.1471 32.1933 30.5059 32.544C30.6867 32.8547 30.7193 33.1803 30.6036 33.5205C29.9621 34.2109 29.3029 34.8863 28.626 35.5469C28.2938 35.7543 27.952 35.7705 27.6006 35.5957C27.2026 35.2384 26.812 34.8722 26.4288 34.4971C25.8587 34.7817 25.2809 35.0422 24.6954 35.2783C24.6791 35.8154 24.6628 36.3526 24.6465 36.8897C24.5479 37.1753 24.3608 37.3706 24.085 37.4756Z" fill="url(#paint3_linear_708_13665)"/>
<path opacity="0.936" fill-rule="evenodd" clip-rule="evenodd" d="M32.4824 21.2647C33.2476 21.2565 34.0126 21.2647 34.7774 21.2891C34.9645 21.3461 35.0866 21.4681 35.1436 21.6553C35.1761 22.404 35.1761 23.1527 35.1436 23.9014C35.0668 24.1246 34.9121 24.2629 34.6797 24.3164C33.9798 24.349 33.2799 24.349 32.5801 24.3164C32.3489 24.2643 32.1943 24.1259 32.1162 23.9014C32.0837 23.169 32.0837 22.4365 32.1162 21.7041C32.1706 21.4958 32.2926 21.3493 32.4824 21.2647ZM32.8731 22.0459C33.3776 22.0459 33.8822 22.0459 34.3867 22.0459C34.3867 22.5504 34.3867 23.055 34.3867 23.5596C33.8822 23.5596 33.3776 23.5596 32.8731 23.5596C32.8731 23.055 32.8731 22.5504 32.8731 22.0459Z" fill="url(#paint4_linear_708_13665)"/>
<path opacity="0.934" fill-rule="evenodd" clip-rule="evenodd" d="M25.6953 23.4619C26.4442 23.4538 27.1929 23.4619 27.9414 23.4863C28.1866 23.569 28.325 23.7399 28.3565 23.999C28.4011 24.7337 28.3849 25.4661 28.3076 26.1963C28.2262 26.3753 28.0879 26.4811 27.8926 26.5137C27.1764 26.5462 26.4603 26.5462 25.7442 26.5137C25.4573 26.4367 25.3027 26.2496 25.2803 25.9522C25.2477 25.3011 25.2477 24.6501 25.2803 23.999C25.3214 23.7389 25.4598 23.5598 25.6953 23.4619ZM26.0371 24.2432C26.558 24.2432 27.0788 24.2432 27.5996 24.2432C27.5996 24.7477 27.5996 25.2523 27.5996 25.7568C27.0788 25.7568 26.558 25.7568 26.0371 25.7568C26.0371 25.2523 26.0371 24.7477 26.0371 24.2432Z" fill="url(#paint5_linear_708_13665)"/>
<path opacity="0.926" fill-rule="evenodd" clip-rule="evenodd" d="M22.424 25.2197C24.1385 25.3308 24.9766 26.2423 24.9387 27.9541C24.7245 29.0634 24.0654 29.7389 22.9611 29.9805C21.7278 30.1087 20.857 29.6123 20.3488 28.4912C19.9449 27.0125 20.4413 25.9626 21.8381 25.3418C22.0401 25.3008 22.2354 25.2601 22.424 25.2197ZM22.424 26.001C21.8122 26.0993 21.3727 26.4329 21.1057 27.002C20.8078 28.0015 21.1334 28.7176 22.0822 29.1504C23.1541 29.3636 23.8459 28.9485 24.1574 27.9053C24.2028 26.7055 23.625 26.0708 22.424 26.001Z" fill="url(#paint6_linear_708_13665)"/>
</g>
<defs>
<linearGradient id="paint0_linear_708_13665" x1="27.3908" y1="14.2238" x2="31.2625" y2="14.2238" gradientUnits="userSpaceOnUse">
<stop stop-color="#57CBFF"/>
<stop offset="0.904" stop-color="#199BD5"/>
</linearGradient>
<linearGradient id="paint1_linear_708_13665" x1="30.7385" y1="17.9286" x2="36.2422" y2="17.9286" gradientUnits="userSpaceOnUse">
<stop stop-color="#57CBFF"/>
<stop offset="0.904" stop-color="#199BD5"/>
</linearGradient>
<linearGradient id="paint2_linear_708_13665" x1="24.9812" y1="20.3478" x2="30.9688" y2="20.3478" gradientUnits="userSpaceOnUse">
<stop stop-color="#57CBFF"/>
<stop offset="0.904" stop-color="#199BD5"/>
</linearGradient>
<linearGradient id="paint3_linear_708_13665" x1="7.98758" y1="28.9573" x2="32.4838" y2="28.9573" gradientUnits="userSpaceOnUse">
<stop stop-color="#57CBFF"/>
<stop offset="0.904" stop-color="#199BD5"/>
</linearGradient>
<linearGradient id="paint4_linear_708_13665" x1="31.3577" y1="23.0112" x2="35.168" y2="23.0112" gradientUnits="userSpaceOnUse">
<stop stop-color="#57CBFF"/>
<stop offset="0.904" stop-color="#199BD5"/>
</linearGradient>
<linearGradient id="paint5_linear_708_13665" x1="24.5101" y1="25.2084" x2="28.381" y2="25.2084" gradientUnits="userSpaceOnUse">
<stop stop-color="#57CBFF"/>
<stop offset="0.904" stop-color="#199BD5"/>
</linearGradient>
<linearGradient id="paint6_linear_708_13665" x1="19.0849" y1="27.9359" x2="24.9399" y2="27.9359" gradientUnits="userSpaceOnUse">
<stop stop-color="#57CBFF"/>
<stop offset="0.904" stop-color="#199BD5"/>
</linearGradient>
<clipPath id="clip0_708_13665">
<rect width="25" height="25" fill="white" transform="translate(12 12.5)"/>
</clipPath>
</defs>
</svg>
