<svg width="49" height="50" viewBox="0 0 49 50" fill="none" xmlns="http://www.w3.org/2000/svg">
<g clip-path="url(#clip0_708_13686)">
<path opacity="0.93" fill-rule="evenodd" clip-rule="evenodd" d="M26.0371 12.4756C26.3138 12.4756 26.5905 12.4756 26.8672 12.4756C28.0764 12.8145 28.7518 13.612 28.8936 14.8682C28.918 15.519 28.9261 16.17 28.918 16.8213C31.099 16.8131 33.28 16.8213 35.4609 16.8457C36.2572 17.0448 36.6804 17.5575 36.7305 18.3838C36.7155 18.845 36.5364 19.2275 36.1934 19.5312C36.9093 20.3134 36.9093 21.0947 36.1934 21.875C36.8135 22.5248 36.8868 23.2328 36.4131 23.999C36.2 24.2644 35.9314 24.4516 35.6074 24.5605C36.0228 25.3576 35.8926 26.0575 35.2168 26.6602C35.0322 26.7688 34.8369 26.8501 34.6309 26.9043C33.9955 26.9125 33.3607 26.9369 32.7266 26.9775C33.8977 28.5761 34.1174 30.3014 33.3857 32.1533C32.1912 34.4719 30.295 35.4403 27.6973 35.0586C27.0646 34.9211 26.4786 34.677 25.9395 34.3262C25.7521 33.8462 25.9148 33.6346 26.4277 33.6914C28.0149 34.643 29.5937 34.6267 31.1641 33.6426C32.966 32.205 33.4461 30.4065 32.6045 28.2471C31.6231 26.4745 30.1176 25.6851 28.0879 25.8789C26.0666 26.3051 24.8703 27.534 24.499 29.5654C24.3796 30.7155 24.6563 31.7572 25.3291 32.6904C25.4021 33.1547 25.2149 33.3256 24.7676 33.2031C24.1542 32.4783 23.8124 31.64 23.7422 30.6885C23.4551 30.6978 23.2028 30.7955 22.9854 30.9814C22.9224 31.5301 22.8898 32.0835 22.8877 32.6416C22.7656 33.0892 22.4808 33.374 22.0332 33.4961C21.252 33.5287 20.4707 33.5287 19.6895 33.4961C19.1986 33.3633 18.9137 33.0459 18.835 32.5439C18.8187 32.0394 18.8024 31.5348 18.7861 31.0303C18.5472 30.7715 18.2624 30.6819 17.9316 30.7617C17.552 31.1905 17.1288 31.5649 16.6621 31.8848C16.315 31.9901 15.9732 31.9739 15.6367 31.8359C15.0766 31.3247 14.5314 30.7958 14.001 30.249C13.698 29.7497 13.7143 29.2614 14.0498 28.7842C14.437 28.4298 14.7869 28.0473 15.0996 27.6367C15.0384 27.3509 14.8919 27.1231 14.6602 26.9531C14.1393 26.9369 13.6185 26.9206 13.0977 26.9043C12.6068 26.7715 12.3219 26.4541 12.2432 25.9521C12.2106 25.236 12.2106 24.5199 12.2432 23.8037C12.3357 23.3693 12.588 23.0682 13 22.9004C13.5673 22.8408 14.137 22.8082 14.709 22.8027C14.7788 22.78 14.8358 22.7393 14.8799 22.6807C14.9468 22.5062 15.0201 22.3353 15.0996 22.168C15.0659 22.1159 15.0415 22.0589 15.0264 21.9971C14.7024 21.6242 14.3606 21.2661 14.001 20.9229C13.6784 20.3657 13.7272 19.8449 14.1475 19.3604C14.5965 18.895 15.0604 18.4474 15.5391 18.0176C15.9939 17.7249 16.4496 17.7249 16.9062 18.0176C17.2767 18.429 17.6836 18.7952 18.127 19.1162C18.3119 19.0573 18.4909 18.984 18.6641 18.8965C18.7227 18.8524 18.7634 18.7955 18.7861 18.7256C18.8024 18.221 18.8187 17.7165 18.835 17.2119C18.9628 16.6771 19.2965 16.3598 19.8359 16.2598C20.5195 16.2272 21.2031 16.2272 21.8867 16.2598C22.4013 16.3338 22.735 16.6186 22.8877 17.1143C22.904 17.6351 22.9203 18.1559 22.9365 18.6768C22.9743 18.7958 23.0476 18.8854 23.1562 18.9453C23.3027 19.0023 23.4492 19.0592 23.5957 19.1162C23.6589 19.087 23.724 19.0626 23.791 19.043C24.1166 18.7174 24.442 18.3919 24.7676 18.0664C24.9739 17.9244 25.2018 17.8348 25.4512 17.7979C25.4918 17.2289 25.5163 16.6592 25.5244 16.0889C25.8442 15.7921 26.0884 15.8409 26.2568 16.2354C26.2731 18.9372 26.2894 21.639 26.3057 24.3408C26.3792 24.7627 26.5665 25.1208 26.8672 25.415C28.2873 24.8681 29.6789 24.9332 31.042 25.6104C31.0174 25.1625 31.1395 24.7637 31.4082 24.4141C30.5937 23.8408 30.4065 23.1002 30.8467 22.1924C30.9304 22.0821 31.0199 21.9763 31.1152 21.875C30.593 21.305 30.4872 20.6621 30.7979 19.9463C30.8944 19.809 31.0002 19.6788 31.1152 19.5557C30.5868 18.9757 30.4892 18.3328 30.8223 17.627C30.1061 17.6107 29.39 17.5944 28.6738 17.5781C28.4249 17.5082 28.254 17.3535 28.1611 17.1143C28.1561 16.2662 28.1235 15.4199 28.0635 14.5752C27.7934 13.6944 27.1993 13.2549 26.2812 13.2568C26.3021 13.7652 26.2776 14.2698 26.208 14.7705C25.9862 15.0272 25.7584 15.0272 25.5244 14.7705C25.4918 14.2008 25.4918 13.6312 25.5244 13.0615C25.6189 12.7963 25.7898 12.601 26.0371 12.4756ZM19.9336 17.0166C20.6057 16.9939 21.273 17.0184 21.9355 17.0898C21.9925 17.1468 22.0495 17.2038 22.1064 17.2607C22.1227 17.7653 22.139 18.2699 22.1553 18.7744C22.298 19.3482 22.6643 19.6981 23.2539 19.8242C23.6124 19.9155 23.9542 19.8667 24.2793 19.6777C24.6488 19.2755 25.0475 18.9093 25.4756 18.5791C25.4918 20.5322 25.5082 22.4854 25.5244 24.4385C25.605 24.925 25.7921 25.3644 26.0859 25.7568C24.6141 26.7428 23.8166 28.1263 23.6934 29.9072C23.1641 29.9181 22.7166 30.1134 22.3506 30.4932C22.2582 30.6454 22.1931 30.8082 22.1553 30.9814C22.139 31.486 22.1227 31.9906 22.1064 32.4951C22.0837 32.565 22.043 32.6219 21.9844 32.666C21.2728 32.7458 20.5566 32.762 19.8359 32.7148C19.7229 32.6607 19.6497 32.5711 19.6162 32.4463C19.612 31.8738 19.5794 31.3042 19.5186 30.7373C19.2823 30.2972 18.9161 30.0286 18.4199 29.9316C18.0933 29.8755 17.784 29.9243 17.4922 30.0781C17.1667 30.4037 16.8411 30.7292 16.5156 31.0547C16.3487 31.1937 16.1697 31.21 15.9785 31.1035C15.5309 30.6559 15.0833 30.2083 14.6357 29.7607C14.5355 29.5884 14.5517 29.4257 14.6846 29.2725C15.0786 28.9111 15.4367 28.5205 15.7588 28.1006C15.9432 27.4169 15.7723 26.8392 15.2461 26.3672C15.1484 26.3184 15.0508 26.2695 14.9531 26.2207C14.3858 26.1611 13.8161 26.1285 13.2441 26.123C13.1311 26.0689 13.0579 25.9793 13.0244 25.8545C12.9773 25.1663 12.9936 24.4827 13.0732 23.8037C13.1325 23.7281 13.2058 23.6711 13.293 23.6328C13.8661 23.6297 14.4358 23.5972 15.002 23.5352C15.4514 23.3297 15.7199 22.9798 15.8076 22.4854C15.8886 22.1711 15.856 21.8619 15.71 21.5576C15.3697 21.1685 15.0116 20.7941 14.6357 20.4346C14.5476 20.3022 14.5476 20.172 14.6357 20.0439C15.1277 19.5192 15.6485 19.031 16.1982 18.5791C16.2715 18.6035 16.3447 18.6279 16.418 18.6523C16.7435 18.9779 17.069 19.3034 17.3945 19.6289C18.1229 20.0135 18.7821 19.9077 19.3721 19.3115C19.4506 19.1708 19.5157 19.0243 19.5674 18.8721C19.5836 18.3512 19.6 17.8304 19.6162 17.3096C19.6863 17.1659 19.7921 17.0683 19.9336 17.0166ZM31.9941 17.6025C33.1173 17.5944 34.2403 17.6025 35.3633 17.627C35.8907 17.8597 36.0453 18.2421 35.8271 18.7744C35.6903 18.9769 35.5031 19.0989 35.2656 19.1406C34.1914 19.1732 33.1172 19.1732 32.043 19.1406C31.4368 18.9292 31.2659 18.5304 31.5303 17.9443C31.6538 17.7791 31.8084 17.6651 31.9941 17.6025ZM31.9453 19.9463C33.0848 19.9381 34.2241 19.9463 35.3633 19.9707C35.8896 20.2016 36.0443 20.5841 35.8271 21.1182C35.6726 21.3216 35.4691 21.4437 35.2168 21.4844C34.1751 21.5169 33.1334 21.5169 32.0918 21.4844C31.455 21.3 31.2679 20.9013 31.5303 20.2881C31.6495 20.1438 31.7878 20.0299 31.9453 19.9463ZM31.9453 22.29C33.101 22.2819 34.2566 22.29 35.4121 22.3145C35.9287 22.5946 36.0508 22.9934 35.7783 23.5107C35.6837 23.638 35.5616 23.7275 35.4121 23.7793C34.2565 23.8119 33.1009 23.8119 31.9453 23.7793C31.4504 23.5657 31.2958 23.1995 31.4814 22.6807C31.6167 22.5205 31.7713 22.3903 31.9453 22.29ZM32.5312 24.585C33.2177 24.564 33.9013 24.5884 34.582 24.6582C35.1668 25.0573 35.2157 25.513 34.7285 26.0254C34.6634 26.058 34.5983 26.0905 34.5332 26.123C33.817 26.1556 33.1009 26.1556 32.3848 26.123C31.8275 25.8271 31.7136 25.412 32.043 24.8779C32.1802 24.7283 32.343 24.6307 32.5312 24.585Z" fill="url(#paint0_linear_708_13686)"/>
<path opacity="0.923" fill-rule="evenodd" clip-rule="evenodd" d="M20.4707 21.0205C22.4477 20.9623 23.8067 21.8412 24.5479 23.6573C25.0739 25.8353 24.3497 27.4385 22.375 28.4668C20.5454 29.098 19.0073 28.683 17.7607 27.2217C17.4483 26.7759 17.2286 26.2876 17.1016 25.7569C17.1509 25.407 17.3462 25.2849 17.6875 25.3907C17.7631 25.4499 17.8201 25.5232 17.8584 25.6104C18.3369 27.0893 19.3542 27.8868 20.9102 28.003C22.5222 27.8475 23.5232 26.9849 23.9131 25.4151C24.0698 23.7676 23.3943 22.6201 21.8867 21.9727C20.5285 21.5845 19.3811 21.9182 18.4443 22.9737C18.1624 23.4155 17.9264 23.8793 17.7363 24.3653C17.4833 24.487 17.2798 24.4301 17.126 24.1944C17.176 23.5567 17.4039 22.987 17.8096 22.4854C18.5084 21.6467 19.3955 21.1584 20.4707 21.0205Z" fill="url(#paint1_linear_708_13686)"/>
<path opacity="0.927" fill-rule="evenodd" clip-rule="evenodd" d="M20.4219 22.8271C21.6437 22.6928 22.4656 23.1974 22.8877 24.3407C23.0968 25.5915 22.6167 26.446 21.4473 26.9042C19.873 27.1264 18.9778 26.4509 18.7617 24.8778C18.8542 23.8106 19.4077 23.127 20.4219 22.8271ZM20.8613 23.5595C20.4965 23.5912 20.1791 23.7377 19.9092 23.9989C19.4019 24.6871 19.4589 25.33 20.0801 25.9276C20.9615 26.4092 21.637 26.2057 22.1064 25.3173C22.281 24.3158 21.8659 23.7299 20.8613 23.5595Z" fill="url(#paint2_linear_708_13686)"/>
<path opacity="0.926" fill-rule="evenodd" clip-rule="evenodd" d="M29.6033 37.4756C29.0336 37.4756 28.464 37.4756 27.8943 37.4756C26.0279 37.2056 24.4573 36.3755 23.1824 34.9854C23.0254 34.542 23.18 34.3385 23.6462 34.375C25.7399 36.5789 28.2301 37.2137 31.1169 36.2793C33.9869 34.9921 35.3948 32.7704 35.3406 29.6143C35.3071 29.2183 35.242 28.8277 35.1452 28.4424C35.0201 28.0796 35.1422 27.868 35.5115 27.8076C35.7737 27.8577 35.912 28.0205 35.9265 28.2959C36.5376 31.2312 35.7482 33.7133 33.5583 35.7422C32.4027 36.6944 31.0844 37.2722 29.6033 37.4756Z" fill="url(#paint3_linear_708_13686)"/>
<path opacity="0.916" fill-rule="evenodd" clip-rule="evenodd" d="M30.8721 28.2959C31.4057 28.2735 31.5604 28.5013 31.3359 28.9795C30.4552 29.9416 29.5925 30.9182 28.748 31.9092C28.6242 32.0495 28.4858 32.1715 28.333 32.2754C28.2124 32.3099 28.0984 32.2937 27.9912 32.2266C27.3119 31.5149 26.6689 30.7744 26.0625 30.0049C26.0713 29.5251 26.2911 29.3868 26.7217 29.5899C27.2181 30.1514 27.7145 30.7129 28.2109 31.2745C29.1095 30.2867 29.9966 29.2938 30.8721 28.2959Z" fill="url(#paint4_linear_708_13686)"/>
</g>
<circle cx="24.5" cy="25" r="24.5" fill="#279ED3" fill-opacity="0.1"/>
<defs>
<linearGradient id="paint0_linear_708_13686" x1="6.36936" y1="25.3528" x2="36.7305" y2="25.3528" gradientUnits="userSpaceOnUse">
<stop stop-color="#57CBFF"/>
<stop offset="0.904" stop-color="#199BD5"/>
</linearGradient>
<linearGradient id="paint1_linear_708_13686" x1="15.285" y1="25.4125" x2="24.7139" y2="25.4125" gradientUnits="userSpaceOnUse">
<stop stop-color="#57CBFF"/>
<stop offset="0.904" stop-color="#199BD5"/>
</linearGradient>
<linearGradient id="paint2_linear_708_13686" x1="17.7658" y1="25.1579" x2="22.9353" y2="25.1579" gradientUnits="userSpaceOnUse">
<stop stop-color="#57CBFF"/>
<stop offset="0.904" stop-color="#199BD5"/>
</linearGradient>
<linearGradient id="paint3_linear_708_13686" x1="20.02" y1="33.3008" x2="36.1265" y2="33.3008" gradientUnits="userSpaceOnUse">
<stop stop-color="#57CBFF"/>
<stop offset="0.904" stop-color="#199BD5"/>
</linearGradient>
<linearGradient id="paint4_linear_708_13686" x1="24.7803" y1="30.5663" x2="31.4356" y2="30.5663" gradientUnits="userSpaceOnUse">
<stop stop-color="#57CBFF"/>
<stop offset="0.904" stop-color="#199BD5"/>
</linearGradient>
<clipPath id="clip0_708_13686">
<rect width="25" height="25" fill="white" transform="translate(12 12.5)"/>
</clipPath>
</defs>
</svg>
