<svg width="49" height="50" viewBox="0 0 49 50" fill="none" xmlns="http://www.w3.org/2000/svg">
<g clip-path="url(#clip0_708_13703)">
<path opacity="0.955" fill-rule="evenodd" clip-rule="evenodd" d="M22.0332 12.4756C22.3424 12.4756 22.6517 12.4756 22.9609 12.4756C23.6483 12.6584 24.1204 13.0816 24.377 13.7451C25.0979 13.7223 25.814 13.7467 26.5254 13.8184C26.5723 13.8877 26.6129 13.9609 26.6475 14.0381C26.6719 14.3632 26.68 14.6887 26.6719 15.0146C27.909 15.0065 29.1459 15.0146 30.3828 15.0391C30.9643 15.2299 31.298 15.6287 31.3838 16.2354C31.4 20.3857 31.4164 24.5361 31.4326 28.6865C33.5798 29.0596 34.8819 30.3129 35.3389 32.4463C35.5258 34.2972 34.8667 35.7539 33.3613 36.8164C32.8262 37.1383 32.2566 37.3581 31.6523 37.4756C31.2129 37.4756 30.7734 37.4756 30.334 37.4756C29.1494 37.2738 28.1892 36.696 27.4531 35.7422C23.1563 35.7259 18.8594 35.7096 14.5625 35.6934C14.0613 35.534 13.7439 35.2003 13.6104 34.6924C13.5778 28.475 13.5778 22.2575 13.6104 16.04C13.7439 15.5321 14.0613 15.1985 14.5625 15.0391C15.8157 15.0146 17.0689 15.0065 18.3223 15.0146C18.3142 14.6562 18.3223 14.2981 18.3467 13.9404C18.3649 13.8957 18.3894 13.855 18.4199 13.8184C19.1321 13.7629 19.8482 13.7222 20.5684 13.6963C20.8682 13.0588 21.3564 12.6519 22.0332 12.4756ZM22.1309 13.3057C22.9603 13.1871 23.4893 13.5289 23.7178 14.3311C23.7584 14.4043 23.8154 14.4613 23.8887 14.502C24.5395 14.5264 25.1906 14.5345 25.8418 14.5264C25.8418 15.1123 25.8418 15.6982 25.8418 16.2842C23.612 16.2842 21.3822 16.2842 19.1523 16.2842C19.1523 15.6982 19.1523 15.1123 19.1523 14.5264C19.7873 14.5345 20.4221 14.5264 21.0566 14.502C21.1014 14.4837 21.1421 14.4593 21.1787 14.4287C21.3152 13.894 21.6326 13.5197 22.1309 13.3057ZM14.9531 15.7959C16.0762 15.7959 17.1992 15.7959 18.3223 15.7959C18.3142 16.1543 18.3223 16.5124 18.3467 16.8701C18.3711 16.9596 18.4281 17.0166 18.5176 17.041C21.1543 17.0736 23.791 17.0736 26.4277 17.041C26.5408 16.9868 26.614 16.8973 26.6475 16.7725C26.6719 16.4473 26.68 16.1218 26.6719 15.7959C27.7788 15.7878 28.8855 15.7959 29.9922 15.8203C30.2162 15.8466 30.3871 15.9524 30.5049 16.1377C30.5857 20.3185 30.602 24.5015 30.5537 28.6865C28.3342 29.0505 27.0159 30.3364 26.5986 32.5439C26.5068 33.3684 26.6289 34.1578 26.9648 34.9121C22.9609 34.9447 18.957 34.9447 14.9531 34.9121C14.7144 34.885 14.5435 34.7629 14.4404 34.5459C14.4079 28.4261 14.4079 22.3063 14.4404 16.1865C14.5513 15.969 14.7222 15.8388 14.9531 15.7959ZM30.5781 29.5166C32.692 29.491 34.0022 30.5 34.5088 32.5439C34.6709 34.3117 33.9629 35.5894 32.3848 36.377C30.803 36.9623 29.4277 36.6449 28.2588 35.4248C27.1587 33.9336 27.1261 32.42 28.1611 30.8838C28.7949 30.1155 29.6006 29.6597 30.5781 29.5166Z" fill="url(#paint0_linear_708_13703)"/>
<path opacity="0.941" fill-rule="evenodd" clip-rule="evenodd" d="M17.2946 19.5031C18.1574 19.4949 19.02 19.5031 19.8825 19.5275C19.9524 19.5502 20.0093 19.5909 20.0534 19.6495C20.1335 20.5566 20.1498 21.468 20.1022 22.3839C20.0795 22.4538 20.0388 22.5107 19.9801 22.5548C19.0894 22.6349 18.1942 22.6512 17.2946 22.6036C17.2074 22.5653 17.1342 22.5084 17.0749 22.4327C16.9955 21.5733 16.9792 20.7107 17.026 19.8449C17.0719 19.6936 17.1614 19.5797 17.2946 19.5031ZM17.8317 20.3331C17.8317 20.8214 17.8317 21.3097 17.8317 21.798C18.32 21.798 18.8083 21.798 19.2966 21.798C19.2966 21.3097 19.2966 20.8214 19.2966 20.3331C18.8083 20.3331 18.32 20.3331 17.8317 20.3331Z" fill="url(#paint1_linear_708_13703)"/>
<path opacity="0.934" fill-rule="evenodd" clip-rule="evenodd" d="M21.838 19.2138C23.8725 19.2056 25.907 19.2138 27.9415 19.2382C28.2368 19.388 28.3019 19.6077 28.1368 19.8973C28.0799 19.9503 28.0148 19.9909 27.9415 20.0194C25.9069 20.052 23.8725 20.052 21.838 20.0194C21.4525 19.7514 21.4525 19.4828 21.838 19.2138Z" fill="url(#paint2_linear_708_13703)"/>
<path opacity="0.934" fill-rule="evenodd" clip-rule="evenodd" d="M21.838 21.5087C23.8725 21.5005 25.907 21.5087 27.9415 21.5331C28.2368 21.6829 28.3019 21.9027 28.1368 22.1923C28.0799 22.2452 28.0148 22.2859 27.9415 22.3143C25.9069 22.3469 23.8725 22.3469 21.838 22.3143C21.4525 22.0463 21.4525 21.7778 21.838 21.5087Z" fill="url(#paint3_linear_708_13703)"/>
<path opacity="0.941" fill-rule="evenodd" clip-rule="evenodd" d="M17.2946 24.4384C18.1574 24.4302 19.02 24.4384 19.8825 24.4628C19.9524 24.4855 20.0093 24.5262 20.0534 24.5848C20.1335 25.4919 20.1498 26.4034 20.1022 27.3192C20.0795 27.3891 20.0388 27.446 19.9801 27.4901C19.0894 27.5702 18.1942 27.5865 17.2946 27.5389C17.2074 27.5006 17.1342 27.4437 17.0749 27.368C16.9955 26.5086 16.9792 25.646 17.026 24.7802C17.0719 24.6289 17.1614 24.515 17.2946 24.4384ZM17.8317 25.2684C17.8317 25.7567 17.8317 26.245 17.8317 26.7333C18.32 26.7333 18.8083 26.7333 19.2966 26.7333C19.2966 26.245 19.2966 25.7567 19.2966 25.2684C18.8083 25.2684 18.32 25.2684 17.8317 25.2684Z" fill="url(#paint4_linear_708_13703)"/>
<path opacity="0.934" fill-rule="evenodd" clip-rule="evenodd" d="M21.838 24.4384C23.8725 24.4302 25.907 24.4384 27.9415 24.4628C28.2368 24.6126 28.3019 24.8324 28.1368 25.122C28.0799 25.1749 28.0148 25.2156 27.9415 25.244C25.9069 25.2766 23.8725 25.2766 21.838 25.244C21.4525 24.976 21.4525 24.7075 21.838 24.4384Z" fill="url(#paint5_linear_708_13703)"/>
<path opacity="0.934" fill-rule="evenodd" clip-rule="evenodd" d="M21.838 26.7333C23.8725 26.7251 25.907 26.7333 27.9415 26.7577C28.2368 26.9076 28.3019 27.1273 28.1368 27.4169C28.0799 27.4698 28.0148 27.5105 27.9415 27.5389C25.9069 27.5715 23.8725 27.5715 21.838 27.5389C21.4525 27.2709 21.4525 27.0024 21.838 26.7333Z" fill="url(#paint6_linear_708_13703)"/>
<path opacity="0.941" fill-rule="evenodd" clip-rule="evenodd" d="M17.2946 29.663C18.1574 29.6548 19.02 29.663 19.8825 29.6874C19.9524 29.7101 20.0093 29.7508 20.0534 29.8095C20.1335 30.7165 20.1498 31.628 20.1022 32.5438C20.0795 32.6137 20.0388 32.6706 19.9801 32.7147C19.0894 32.7948 18.1942 32.8111 17.2946 32.7636C17.2074 32.7252 17.1342 32.6683 17.0749 32.5927C16.9955 31.7332 16.9792 30.8706 17.026 30.0048C17.0719 29.8535 17.1614 29.7396 17.2946 29.663ZM17.8317 30.493C17.8317 30.9813 17.8317 31.4696 17.8317 31.9579C18.32 31.9579 18.8083 31.9579 19.2966 31.9579C19.2966 31.4696 19.2966 30.9813 19.2966 30.493C18.8083 30.493 18.32 30.493 17.8317 30.493Z" fill="url(#paint7_linear_708_13703)"/>
<path opacity="0.93" fill-rule="evenodd" clip-rule="evenodd" d="M21.838 29.663C23.0588 29.6548 24.2795 29.663 25.5001 29.6874C25.7954 29.8372 25.8605 30.057 25.6954 30.3466C25.6385 30.3995 25.5734 30.4402 25.5001 30.4686C24.2794 30.5012 23.0587 30.5012 21.838 30.4686C21.4525 30.2006 21.4525 29.9321 21.838 29.663Z" fill="url(#paint8_linear_708_13703)"/>
<path opacity="0.933" fill-rule="evenodd" clip-rule="evenodd" d="M32.9226 31.3232C33.381 31.3448 33.5356 31.5727 33.3865 32.0068C32.448 32.9454 31.5121 33.8812 30.5789 34.8145C30.4487 34.847 30.3185 34.847 30.1883 34.8145C29.609 34.2515 29.0475 33.6737 28.5037 33.0811C28.4708 32.6746 28.658 32.5037 29.0652 32.5684C29.512 32.9745 29.9515 33.3895 30.3836 33.8135C31.2322 32.981 32.0786 32.1509 32.9226 31.3232Z" fill="url(#paint9_linear_708_13703)"/>
<path opacity="0.93" fill-rule="evenodd" clip-rule="evenodd" d="M21.838 31.9579C23.0588 31.9497 24.2795 31.9579 25.5001 31.9823C25.7954 32.1322 25.8605 32.3519 25.6954 32.6415C25.6385 32.6944 25.5734 32.7351 25.5001 32.7636C24.2794 32.7961 23.0587 32.7961 21.838 32.7636C21.4525 32.4955 21.4525 32.227 21.838 31.9579Z" fill="url(#paint10_linear_708_13703)"/>
</g>
<circle cx="24.5" cy="25" r="24.5" fill="#279ED3" fill-opacity="0.1"/>
<defs>
<linearGradient id="paint0_linear_708_13703" x1="8.3875" y1="26.6801" x2="35.3699" y2="26.6801" gradientUnits="userSpaceOnUse">
<stop stop-color="#57CBFF"/>
<stop offset="0.904" stop-color="#199BD5"/>
</linearGradient>
<linearGradient id="paint1_linear_708_13703" x1="16.2534" y1="21.2785" x2="20.1288" y2="21.2785" gradientUnits="userSpaceOnUse">
<stop stop-color="#57CBFF"/>
<stop offset="0.904" stop-color="#199BD5"/>
</linearGradient>
<linearGradient id="paint2_linear_708_13703" x1="19.9555" y1="19.6841" x2="28.2256" y2="19.6841" gradientUnits="userSpaceOnUse">
<stop stop-color="#57CBFF"/>
<stop offset="0.904" stop-color="#199BD5"/>
</linearGradient>
<linearGradient id="paint3_linear_708_13703" x1="19.9555" y1="21.979" x2="28.2256" y2="21.979" gradientUnits="userSpaceOnUse">
<stop stop-color="#57CBFF"/>
<stop offset="0.904" stop-color="#199BD5"/>
</linearGradient>
<linearGradient id="paint4_linear_708_13703" x1="16.2534" y1="26.2138" x2="20.1288" y2="26.2138" gradientUnits="userSpaceOnUse">
<stop stop-color="#57CBFF"/>
<stop offset="0.904" stop-color="#199BD5"/>
</linearGradient>
<linearGradient id="paint5_linear_708_13703" x1="19.9555" y1="24.9087" x2="28.2256" y2="24.9087" gradientUnits="userSpaceOnUse">
<stop stop-color="#57CBFF"/>
<stop offset="0.904" stop-color="#199BD5"/>
</linearGradient>
<linearGradient id="paint6_linear_708_13703" x1="19.9555" y1="27.2036" x2="28.2256" y2="27.2036" gradientUnits="userSpaceOnUse">
<stop stop-color="#57CBFF"/>
<stop offset="0.904" stop-color="#199BD5"/>
</linearGradient>
<linearGradient id="paint7_linear_708_13703" x1="16.2534" y1="31.4384" x2="20.1288" y2="31.4384" gradientUnits="userSpaceOnUse">
<stop stop-color="#57CBFF"/>
<stop offset="0.904" stop-color="#199BD5"/>
</linearGradient>
<linearGradient id="paint8_linear_708_13703" x1="20.5381" y1="30.1333" x2="25.7842" y2="30.1333" gradientUnits="userSpaceOnUse">
<stop stop-color="#57CBFF"/>
<stop offset="0.904" stop-color="#199BD5"/>
</linearGradient>
<linearGradient id="paint9_linear_708_13703" x1="27.3208" y1="33.3208" x2="33.4414" y2="33.3208" gradientUnits="userSpaceOnUse">
<stop stop-color="#57CBFF"/>
<stop offset="0.904" stop-color="#199BD5"/>
</linearGradient>
<linearGradient id="paint10_linear_708_13703" x1="20.5381" y1="32.4282" x2="25.7842" y2="32.4282" gradientUnits="userSpaceOnUse">
<stop stop-color="#57CBFF"/>
<stop offset="0.904" stop-color="#199BD5"/>
</linearGradient>
<clipPath id="clip0_708_13703">
<rect width="25" height="25" fill="white" transform="translate(12 12.5)"/>
</clipPath>
</defs>
</svg>
