<svg width="25" height="25" viewBox="0 0 25 25" fill="none" xmlns="http://www.w3.org/2000/svg">
<path opacity="0.984" fill-rule="evenodd" clip-rule="evenodd" d="M14.4766 2.46582C15.4858 2.45768 16.4949 2.46582 17.5039 2.49023C17.7442 2.52269 17.8663 2.66103 17.8701 2.90527C17.9027 3.91439 17.9027 4.92348 17.8701 5.93262C17.8597 6.1249 17.7702 6.26328 17.6016 6.34765C16.7213 6.3542 15.8424 6.38672 14.9649 6.44531C14.6112 6.52597 14.4078 6.7457 14.3545 7.10449C14.3301 7.95068 14.3219 8.79702 14.3301 9.64355C15.425 9.62016 16.5155 9.64458 17.6016 9.71679C17.7173 9.84736 17.7743 10.002 17.7725 10.1807C17.805 11.2061 17.805 12.2314 17.7725 13.2568C17.802 13.5976 17.6473 13.7685 17.3086 13.7695C16.3159 13.7939 15.3231 13.8021 14.3301 13.7939C14.3382 16.5772 14.3301 19.3604 14.3057 22.1436C14.2864 22.3092 14.1969 22.415 14.0371 22.4609C12.8002 22.4935 11.5631 22.4935 10.3262 22.4609C10.161 22.3936 10.0715 22.2715 10.0576 22.0947C10.0332 19.3278 10.0251 16.5609 10.0332 13.7939C9.0859 13.8166 8.14186 13.7921 7.20118 13.7207C7.13317 13.6635 7.09244 13.5903 7.07911 13.501C7.04655 12.3128 7.04655 11.1247 7.07911 9.93652C7.10182 9.86665 7.14254 9.80971 7.20118 9.76562C8.14069 9.6936 9.08468 9.66919 10.0332 9.69238C10.0163 8.64951 10.0407 7.60786 10.1065 6.56738C10.5027 4.0633 11.9594 2.69612 14.4766 2.46582Z" fill="white"/>
</svg>
