<svg width="25" height="25" viewBox="0 0 25 25" fill="none" xmlns="http://www.w3.org/2000/svg">
<g clip-path="url(#clip0_708_11625)">
<path opacity="0.981" fill-rule="evenodd" clip-rule="evenodd" d="M-0.0234375 13.3545C-0.0234375 12.7686 -0.0234375 12.1826 -0.0234375 11.5967C0.612539 7.8437 2.79353 5.55693 6.51953 4.73633C9.02817 4.36035 11.2092 5.01953 13.0625 6.71387C12.3611 7.41528 11.645 8.09888 10.9141 8.76465C9.54536 7.60708 7.99917 7.2897 6.27539 7.8125C4.19552 8.66494 3.08875 10.2193 2.95508 12.4756C3.11426 14.8879 4.33497 16.4748 6.61719 17.2363C8.35542 17.634 9.8772 17.2352 11.1826 16.04C11.6839 15.477 12.0175 14.826 12.1836 14.0869C10.7188 14.0869 9.25391 14.0869 7.78906 14.0869C7.78906 13.1754 7.78906 12.264 7.78906 11.3525C10.263 11.3525 12.737 11.3525 15.2109 11.3525C15.5449 13.5651 15.0973 15.5997 13.8682 17.4561C12.6663 19.0219 11.0794 19.9415 9.10742 20.2148C6.14102 20.6044 3.67518 19.6849 1.70996 17.4561C0.756196 16.2465 0.178396 14.8793 -0.0234375 13.3545Z" fill="white"/>
<path opacity="0.974" fill-rule="evenodd" clip-rule="evenodd" d="M24.9766 11.5967C24.9766 12.3779 24.9766 13.1592 24.9766 13.9404C24.2279 13.9404 23.4792 13.9404 22.7305 13.9404C22.7305 14.6891 22.7305 15.4378 22.7305 16.1865C21.9492 16.1865 21.168 16.1865 20.3867 16.1865C20.3867 15.4378 20.3867 14.6891 20.3867 13.9404C19.638 13.9404 18.8893 13.9404 18.1406 13.9404C18.1406 13.1592 18.1406 12.3779 18.1406 11.5967C18.8893 11.5967 19.638 11.5967 20.3867 11.5967C20.3867 10.848 20.3867 10.0993 20.3867 9.35059C21.168 9.35059 21.9492 9.35059 22.7305 9.35059C22.7305 10.0993 22.7305 10.848 22.7305 11.5967C23.4792 11.5967 24.2279 11.5967 24.9766 11.5967Z" fill="white"/>
</g>
<defs>
<clipPath id="clip0_708_11625">
<rect width="25" height="25" fill="white"/>
</clipPath>
</defs>
</svg>
