<svg width="101" height="100" viewBox="0 0 101 100" fill="none" xmlns="http://www.w3.org/2000/svg">
<circle cx="50.5" cy="50" r="50" fill="#279ED3" fill-opacity="0.1"/>
<path opacity="0.908" fill-rule="evenodd" clip-rule="evenodd" d="M32.7871 28.0759C41.8041 28.0596 50.821 28.0759 59.8379 28.1248C60.4536 28.2449 60.8931 28.5867 61.1563 29.1501C61.2921 29.8577 61.3409 30.5739 61.3027 31.2986C62.7192 30.9159 64.1353 30.5253 65.5508 30.1267C68.1385 30.859 70.7264 31.5915 73.3145 32.324C73.6854 32.4146 74.0272 32.5611 74.3398 32.7634C74.4314 35.4358 74.3988 38.105 74.2422 40.7712C73.2276 45.4317 70.477 48.573 65.9902 50.1951C65.3016 50.2698 64.6505 50.1395 64.0371 49.8044C63.0651 49.3838 62.1699 48.8467 61.3516 48.1931C61.2864 49.8208 61.2864 51.4483 61.3516 53.0759C62.8125 54.2436 64.2447 55.4481 65.6484 56.6892C65.7386 56.839 65.7874 57.0018 65.7949 57.1775C65.7524 57.5229 65.606 57.8159 65.3555 58.0564C64.8509 58.626 64.3464 59.1958 63.8418 59.7654C63.508 59.9625 63.1825 59.9463 62.8652 59.7166C62.1641 60.1766 62.1641 60.6812 62.8652 61.2302C65.018 63.025 67.1989 64.7829 69.4082 66.5037C71.5455 66.7586 72.4407 67.9468 72.0938 70.0681C71.1952 71.7565 69.8769 72.1959 68.1387 71.3865C67.862 71.1749 67.6179 70.9307 67.4063 70.6541C67.2223 70.1825 67.0106 69.7268 66.7715 69.2869C64.9791 67.771 63.1725 66.2737 61.3516 64.7947C61.319 66.292 61.2864 67.7895 61.2539 69.2869C61.0232 70.0304 60.5187 70.4699 59.7402 70.6052C49.5189 70.6704 39.2976 70.6704 29.0762 70.6052C28.3153 70.5103 27.8107 70.1035 27.5625 69.3845C27.4974 57.6658 27.4974 45.947 27.5625 34.2283C29.1158 32.3908 30.6457 30.5353 32.1523 28.6619C32.3538 28.4437 32.5654 28.2484 32.7871 28.0759ZM33.666 29.2478C42.3249 29.2315 50.9838 29.2478 59.6426 29.2966C59.817 29.3732 59.9635 29.4872 60.082 29.6384C60.1309 30.3213 60.1471 31.0048 60.1309 31.6892C58.9686 31.9411 57.8455 32.2992 56.7617 32.7634C56.651 33.8636 56.6022 34.9704 56.6152 36.0837C56.1905 39.8875 57.1183 43.3054 59.3984 46.3376C59.6263 46.5655 59.8542 46.7934 60.082 47.0212C60.1634 48.6824 60.1471 50.3425 60.0332 52.0017C59.5264 51.5761 59.0056 51.1693 58.4707 50.781C58.1174 50.6867 57.7919 50.7355 57.4941 50.9275C56.8688 51.6014 56.2991 52.3176 55.7852 53.0759C55.72 53.3364 55.72 53.5967 55.7852 53.8572C55.9497 54.0053 56.0962 54.1681 56.2246 54.3455C55.0224 55.857 53.8017 57.3544 52.5625 58.8376C52.1919 58.5151 51.785 58.4663 51.3418 58.6912C50.8163 59.335 50.2792 59.9698 49.7305 60.5955C49.338 61.2302 49.4519 61.7673 50.0723 62.2068C52.3005 64.0531 54.5466 65.876 56.8106 67.6755C57.2614 67.8022 57.6357 67.6882 57.9336 67.3337C58.4919 66.6779 59.0127 65.9943 59.4961 65.283C59.607 64.8537 59.4931 64.4957 59.1543 64.2087C59.3319 63.7244 59.6574 63.5942 60.1309 63.8181C60.1472 65.5762 60.1309 67.334 60.082 69.0916C59.9635 69.2428 59.817 69.3567 59.6426 69.4333C49.4134 69.5305 39.192 69.498 28.9785 69.3357C28.8971 69.2543 28.8158 69.1729 28.7344 69.0916C28.6855 57.796 28.6693 46.5004 28.6855 35.2048C29.8904 35.2211 31.0948 35.2048 32.2988 35.156C32.9987 34.977 33.4382 34.5375 33.6172 33.8376C33.666 32.308 33.6823 30.7781 33.666 29.2478ZM32.3965 30.2244C32.5097 31.3467 32.526 32.486 32.4453 33.6423C32.3314 33.7563 32.2175 33.8702 32.1035 33.9841C31.1921 34.0492 30.2806 34.0492 29.3691 33.9841C30.4142 32.7547 31.4233 31.5014 32.3965 30.2244ZM65.502 31.2986C68.0383 32.0463 70.5773 32.795 73.1191 33.5447C73.233 35.6923 73.2493 37.8408 73.168 39.99C72.5678 43.6183 70.696 46.369 67.5527 48.2419C66.9091 48.5758 66.2418 48.8525 65.5508 49.072C60.8945 47.3768 58.323 44.0565 57.8359 39.1111C57.7546 37.2547 57.7709 35.3993 57.8848 33.5447C60.4437 32.8241 62.9827 32.0754 65.502 31.2986ZM33.4707 40.1853C35.1634 40.1853 36.8562 40.1853 38.5488 40.1853C38.5647 40.3833 38.5483 40.5786 38.5 40.7712C37.7528 41.437 37.0204 42.1206 36.3027 42.822C35.7356 42.4339 35.1822 42.0271 34.6426 41.6013C34.1902 41.4856 33.8972 41.6483 33.7637 42.0896C33.8061 42.3158 33.9038 42.5111 34.0566 42.6755C34.6426 43.1313 35.2285 43.587 35.8145 44.0427C36.0926 44.2889 36.3855 44.3214 36.6934 44.1404C37.3251 43.6064 37.9273 43.0368 38.5 42.4314C38.5488 43.3422 38.565 44.2538 38.5488 45.1658C36.8562 45.1658 35.1634 45.1658 33.4707 45.1658C33.4707 43.5056 33.4707 41.8455 33.4707 40.1853ZM33.4707 49.7556C35.1634 49.7556 36.8562 49.7556 38.5488 49.7556C38.5647 49.9536 38.5483 50.1489 38.5 50.3416C37.7824 51.0754 37.05 51.7916 36.3027 52.49C35.7959 52.0644 35.2751 51.6576 34.7402 51.2693C34.2334 51.093 33.9078 51.2558 33.7637 51.7576C33.8492 52.0387 34.012 52.2667 34.252 52.4412C34.8379 52.8969 35.4238 53.3526 36.0098 53.8083C36.2376 53.8735 36.4655 53.8735 36.6934 53.8083C37.2956 53.2061 37.8978 52.604 38.5 52.0017C38.5488 52.9452 38.565 53.8892 38.5488 54.8337C36.8562 54.8337 35.1634 54.8337 33.4707 54.8337C33.4707 53.1411 33.4707 51.4483 33.4707 49.7556ZM58.0801 52.0017C60.2367 53.6857 62.3526 55.4272 64.4277 57.2263C64.058 57.6568 63.6999 58.0962 63.3535 58.5447C61.2439 56.9074 59.1769 55.2146 57.1523 53.4666C57.0872 53.3689 57.0872 53.2712 57.1523 53.1736C57.4859 52.7978 57.7952 52.4072 58.0801 52.0017ZM57.1035 55.1267C57.2749 55.1826 57.4377 55.264 57.5918 55.3708C58.8329 56.4495 60.1024 57.4911 61.4004 58.4958C61.569 58.6315 61.6993 58.7943 61.791 58.9841C60.6291 60.5084 59.4084 61.9896 58.1289 63.4275C56.5827 62.1417 55.0364 60.8559 53.4902 59.5701C54.7548 58.1278 55.9592 56.6466 57.1035 55.1267ZM33.4707 59.4236C35.1634 59.4236 36.8562 59.4236 38.5488 59.4236C38.5647 59.6215 38.5483 59.8168 38.5 60.0095C37.7705 60.6412 37.0707 61.3085 36.4004 62.0115C36.3027 62.0766 36.2051 62.0766 36.1074 62.0115C35.6473 61.5837 35.159 61.1931 34.6426 60.8396C34.1353 60.7186 33.8424 60.9139 33.7637 61.4255C33.8116 61.6191 33.9092 61.7819 34.0566 61.9138C34.6929 62.3786 35.3114 62.8668 35.9121 63.3787C36.3215 63.6028 36.6796 63.5376 36.9863 63.1833C37.4909 62.6788 37.9954 62.1743 38.5 61.6697C38.5488 62.5805 38.565 63.492 38.5488 64.4041C36.8562 64.4041 35.1634 64.4041 33.4707 64.4041C33.4707 62.7439 33.4707 61.0837 33.4707 59.4236ZM51.8301 59.9119C51.9689 59.9323 52.0991 59.9811 52.2207 60.0583C54.2106 61.7554 56.2287 63.4156 58.2754 65.0388C57.9173 65.462 57.5593 65.8852 57.2012 66.3083C57.0274 66.3041 56.8647 66.2389 56.7129 66.113C54.7761 64.5017 52.8392 62.8904 50.9023 61.2791C50.8372 61.2139 50.8372 61.1489 50.9023 61.0837C51.2325 60.7053 51.5417 60.3147 51.8301 59.9119ZM61.4004 61.3767C61.6707 61.6961 61.9637 62.0054 62.2793 62.3044C64.3952 64.0297 66.511 65.7549 68.627 67.4802C69.2169 67.634 69.8028 67.7968 70.3848 67.9685C71.3374 68.8933 71.2723 69.7396 70.1895 70.5076C69.5174 70.761 68.9478 70.6145 68.4805 70.0681C68.3021 69.369 67.9603 68.7667 67.4551 68.2615C65.4084 66.6382 63.3902 64.9781 61.4004 63.281C61.0915 63.0451 60.766 62.8335 60.4238 62.6462C60.7517 62.2212 61.0772 61.7981 61.4004 61.3767Z" fill="url(#paint0_linear_755_3244)"/>
<path opacity="0.884" fill-rule="evenodd" clip-rule="evenodd" d="M68.4312 37.5488C68.9755 37.5945 69.1871 37.8875 69.0659 38.4277C67.8127 39.8763 66.5594 41.3249 65.3062 42.7734C65.0324 42.8472 64.772 42.8146 64.5249 42.6758C63.6599 42.0087 62.8298 41.3089 62.0347 40.5762C61.9106 39.8867 62.1872 39.6426 62.8648 39.8438C63.5484 40.3483 64.232 40.8528 64.9155 41.3574C65.9602 40.2639 66.953 39.1246 67.8941 37.9395C68.0405 37.7472 68.2196 37.617 68.4312 37.5488Z" fill="url(#paint1_linear_755_3244)"/>
<path opacity="0.908" fill-rule="evenodd" clip-rule="evenodd" d="M42.4553 40.3806C46.6872 40.3643 50.9189 40.3806 55.1506 40.4295C55.6263 40.7398 55.6588 41.0979 55.2482 41.5037C50.9513 41.5688 46.6545 41.5688 42.3576 41.5037C41.9549 41.0833 41.9874 40.7089 42.4553 40.3806Z" fill="url(#paint2_linear_755_3244)"/>
<path opacity="0.911" fill-rule="evenodd" clip-rule="evenodd" d="M42.6513 43.7009C47.1436 43.6846 51.6358 43.7009 56.1279 43.7498C56.4697 43.7984 56.6325 43.9937 56.6162 44.3357C56.6304 44.5343 56.5654 44.6971 56.4208 44.824C51.7333 44.8891 47.0458 44.8891 42.3583 44.824C42.0076 44.5339 41.975 44.2084 42.2607 43.8474C42.4128 43.8269 42.543 43.7781 42.6513 43.7009Z" fill="url(#paint3_linear_755_3244)"/>
<path opacity="0.908" fill-rule="evenodd" clip-rule="evenodd" d="M42.3574 50.0486C46.6544 50.0323 50.9513 50.0486 55.248 50.0974C55.5737 50.359 55.6226 50.6682 55.3945 51.0252C55.2903 51.0926 55.1764 51.1415 55.0527 51.1716C50.886 51.2368 46.7194 51.2368 42.5527 51.1716C42.2308 51.1155 42.068 50.9202 42.0645 50.5857C42.0999 50.3716 42.1976 50.1925 42.3574 50.0486Z" fill="url(#paint4_linear_755_3244)"/>
<path opacity="0.906" fill-rule="evenodd" clip-rule="evenodd" d="M42.3573 53.3689C46.1335 53.3526 49.9096 53.3689 53.6855 53.4177C54.2063 53.7758 54.2063 54.1339 53.6855 54.492C49.9094 54.5571 46.1334 54.5571 42.3573 54.492C41.9746 54.1182 41.9746 53.7438 42.3573 53.3689Z" fill="url(#paint5_linear_755_3244)"/>
<path opacity="0.902" fill-rule="evenodd" clip-rule="evenodd" d="M42.4553 59.6189C44.3761 59.6026 46.2967 59.6189 48.217 59.6677C48.5873 59.8682 48.7012 60.1774 48.5588 60.5955C48.4855 60.6566 48.4041 60.7054 48.3146 60.742C46.329 60.8071 44.3432 60.8071 42.3576 60.742C41.9549 60.3215 41.9874 59.9472 42.4553 59.6189Z" fill="url(#paint6_linear_755_3244)"/>
<path opacity="0.904" fill-rule="evenodd" clip-rule="evenodd" d="M42.3574 63.0369C44.6363 63.0206 46.9149 63.0369 49.1934 63.0857C49.3865 63.3296 49.4354 63.6063 49.3398 63.9158C49.2255 64.0518 49.079 64.1333 48.9004 64.1599C46.7845 64.2251 44.6687 64.2251 42.5527 64.1599C42.2308 64.1038 42.068 63.9085 42.0645 63.574C42.0999 63.3599 42.1976 63.1808 42.3574 63.0369Z" fill="url(#paint7_linear_755_3244)"/>
<defs>
<linearGradient id="paint0_linear_755_3244" x1="16.3272" y1="52.9051" x2="74.3905" y2="52.9051" gradientUnits="userSpaceOnUse">
<stop stop-color="#57CBFF"/>
<stop offset="0.904" stop-color="#199BD5"/>
</linearGradient>
<linearGradient id="paint1_linear_755_3244" x1="60.3132" y1="40.5392" x2="69.099" y2="40.5392" gradientUnits="userSpaceOnUse">
<stop stop-color="#57CBFF"/>
<stop offset="0.904" stop-color="#199BD5"/>
</linearGradient>
<linearGradient id="paint2_linear_755_3244" x1="38.8672" y1="41.0438" x2="55.5335" y2="41.0438" gradientUnits="userSpaceOnUse">
<stop stop-color="#57CBFF"/>
<stop offset="0.904" stop-color="#199BD5"/>
</linearGradient>
<linearGradient id="paint3_linear_755_3244" x1="38.5963" y1="44.3642" x2="56.6181" y2="44.3642" gradientUnits="userSpaceOnUse">
<stop stop-color="#57CBFF"/>
<stop offset="0.904" stop-color="#199BD5"/>
</linearGradient>
<linearGradient id="paint4_linear_755_3244" x1="38.8498" y1="50.7118" x2="55.5354" y2="50.7118" gradientUnits="userSpaceOnUse">
<stop stop-color="#57CBFF"/>
<stop offset="0.904" stop-color="#199BD5"/>
</linearGradient>
<linearGradient id="paint5_linear_755_3244" x1="39.2053" y1="54.0321" x2="54.0761" y2="54.0321" gradientUnits="userSpaceOnUse">
<stop stop-color="#57CBFF"/>
<stop offset="0.904" stop-color="#199BD5"/>
</linearGradient>
<linearGradient id="paint6_linear_755_3244" x1="40.5174" y1="60.2821" x2="48.6181" y2="60.2821" gradientUnits="userSpaceOnUse">
<stop stop-color="#57CBFF"/>
<stop offset="0.904" stop-color="#199BD5"/>
</linearGradient>
<linearGradient id="paint7_linear_755_3244" x1="40.317" y1="63.7001" x2="49.3872" y2="63.7001" gradientUnits="userSpaceOnUse">
<stop stop-color="#57CBFF"/>
<stop offset="0.904" stop-color="#199BD5"/>
</linearGradient>
</defs>
</svg>
