<svg width="101" height="100" viewBox="0 0 101 100" fill="none" xmlns="http://www.w3.org/2000/svg">
<circle cx="50.5" cy="50" r="50" fill="#279ED3" fill-opacity="0.1"/>
<path opacity="0.914" fill-rule="evenodd" clip-rule="evenodd" d="M49.7559 26.4163C50.8631 26.4 51.9699 26.4163 53.0762 26.4651C53.5499 26.6476 53.8266 26.9894 53.9063 27.4905C53.9228 28.1439 53.9716 28.795 54.0528 29.4436C54.3892 29.5874 54.731 29.7176 55.0781 29.8342C55.6141 29.3635 56.1512 28.8915 56.6895 28.4182C57.1586 28.2258 57.6143 28.2584 58.0567 28.5159C58.8285 29.2223 59.5284 29.9873 60.1563 30.8108C60.2397 31.2136 60.2071 31.6042 60.0586 31.9827C59.5689 32.4561 59.0969 32.9444 58.6426 33.4475C58.8242 33.7974 58.987 34.1554 59.1309 34.5217C59.8121 34.6029 60.4957 34.6517 61.1817 34.6682C61.6441 34.7725 61.9533 35.0492 62.1094 35.4983C62.1745 36.54 62.1745 37.5816 62.1094 38.6233C62.0442 39.0138 61.8325 39.2905 61.4746 39.4534C60.6987 39.5579 59.9174 39.6393 59.1309 39.6975C58.987 40.0638 58.8242 40.4218 58.6426 40.7717C59.0969 41.2748 59.5689 41.7631 60.0586 42.2366C60.272 42.7724 60.2394 43.2932 59.961 43.7991C59.2906 44.502 58.5908 45.1694 57.8614 45.801C57.6606 45.8314 57.4653 45.8802 57.2754 45.9475C57.0856 45.8802 56.8903 45.8314 56.6895 45.801C56.1479 45.3077 55.5945 44.8357 55.0293 44.385C54.7043 44.5149 54.3787 44.6452 54.0528 44.7756C53.9716 45.3915 53.9228 46.0101 53.9063 46.6311C53.8534 47.178 53.5768 47.5524 53.0762 47.7541C51.9695 47.8193 50.8626 47.8193 49.7559 47.7541C49.4466 47.5751 49.2025 47.331 49.0235 47.0217C48.9746 46.2738 48.9584 45.525 48.9746 44.7756C48.5423 44.6803 48.1355 44.5175 47.7539 44.2873C47.282 44.7593 46.8099 45.2314 46.3379 45.7034C45.7176 46.0212 45.1317 45.9561 44.5801 45.508C43.8333 44.8599 43.1986 44.1275 42.6758 43.3108C42.6073 42.976 42.6399 42.6504 42.7735 42.3342C43.2467 41.7959 43.7188 41.2588 44.1895 40.7229C44.0263 40.3631 43.8636 40.005 43.7012 39.6487C43.0176 39.6162 42.334 39.5835 41.6504 39.551C41.1692 39.3628 40.86 39.021 40.7227 38.5256C40.6575 37.5816 40.6575 36.6376 40.7227 35.6936C40.8168 35.3061 41.0284 34.9968 41.3574 34.7659C42.1312 34.6452 42.9124 34.5801 43.7012 34.5705C43.8766 34.2034 44.0393 33.829 44.1895 33.4475C43.7678 32.9769 43.3283 32.5212 42.8711 32.0803C42.5259 31.4706 42.5585 30.8847 42.9688 30.3225C43.5059 29.7854 44.043 29.2483 44.5801 28.7112C45.1249 28.2373 45.7109 28.1722 46.3379 28.5159C46.7611 28.939 47.1843 29.3622 47.6074 29.7854C48.0486 29.7456 48.4718 29.6154 48.877 29.3948C48.9567 28.6701 49.0055 27.9377 49.0235 27.1975C49.1885 26.8537 49.4326 26.5932 49.7559 26.4163ZM50.3418 27.5881C51.0912 27.5719 51.84 27.5882 52.5879 27.637C52.6676 28.3616 52.7164 29.094 52.7344 29.8342C52.8206 30.0884 52.9671 30.3 53.1739 30.469C53.8021 30.7326 54.4368 30.9767 55.0781 31.2014C55.407 31.1396 55.7161 31.0257 56.0059 30.8596C56.3965 30.469 56.7871 30.0784 57.1778 29.6877C57.8263 30.1233 58.4122 30.6604 58.9356 31.2991C58.4813 31.8022 58.0093 32.2905 57.5196 32.7639C57.3823 33.1127 57.3498 33.4708 57.4219 33.8381C57.6497 34.359 57.8777 34.8798 58.1055 35.4006C58.2961 35.6344 58.5403 35.7809 58.8379 35.8401C59.5207 35.8889 60.2043 35.9051 60.8887 35.8889C60.8887 36.7027 60.8887 37.5165 60.8887 38.3303C60.1718 38.3141 59.4557 38.3303 58.7403 38.3791C58.4862 38.4654 58.2745 38.6119 58.1055 38.8186C57.7776 39.4413 57.5334 40.0923 57.3731 40.7717C57.3822 41.0083 57.4311 41.2362 57.5196 41.4553C57.9753 41.9111 58.431 42.3667 58.8867 42.8225C58.4512 43.471 57.9141 44.057 57.2754 44.5803C56.8374 44.1912 56.4143 43.7843 56.0059 43.3596C55.6537 43.1088 55.2631 43.0112 54.834 43.0666C54.2806 43.2945 53.7273 43.5224 53.1739 43.7502C52.9671 43.9193 52.8206 44.1309 52.7344 44.385C52.6856 45.1004 52.6694 45.8165 52.6856 46.5334C51.8718 46.5334 51.0579 46.5334 50.2442 46.5334C50.2604 45.8816 50.2442 45.2305 50.1953 44.5803C50.127 44.2321 49.948 43.9553 49.6582 43.7502C49.0493 43.4376 48.4146 43.1935 47.7539 43.0178C47.5696 43.0467 47.3905 43.0955 47.2168 43.1643C46.6991 43.5842 46.2109 44.0399 45.752 44.5315C45.6543 44.5966 45.5567 44.5966 45.459 44.5315C44.9382 44.0107 44.4173 43.4898 43.8965 42.969C44.4737 42.4574 44.9782 41.8877 45.4102 41.26C45.4753 40.9345 45.4753 40.6089 45.4102 40.2834C45.2149 39.8277 45.0196 39.372 44.8242 38.9163C44.6327 38.6589 44.3886 38.4798 44.0918 38.3791C43.3764 38.3303 42.6603 38.3141 41.9434 38.3303C41.9434 37.5165 41.9434 36.7027 41.9434 35.8889C42.6603 35.9051 43.3764 35.8889 44.0918 35.8401C44.3908 35.7365 44.635 35.5575 44.8242 35.303C44.9815 34.8312 45.1768 34.3755 45.4102 33.9358C45.5118 33.4534 45.4467 32.9976 45.2149 32.5686C44.7754 32.1291 44.336 31.6897 43.8965 31.2502C44.4661 30.6806 45.0359 30.1109 45.6055 29.5413C46.1131 30.0816 46.6502 30.5861 47.2168 31.0549C47.398 31.0961 47.5771 31.145 47.7539 31.2014C48.4106 31.0151 49.0453 30.7709 49.6582 30.469C49.8416 30.3183 49.9881 30.1393 50.0977 29.9319C50.205 29.1504 50.2864 28.3692 50.3418 27.5881Z" fill="url(#paint0_linear_755_3246)"/>
<path opacity="0.911" fill-rule="evenodd" clip-rule="evenodd" d="M51.3187 31.1035C54.1704 31.2506 56.1072 32.6503 57.1292 35.3027C57.807 38.0953 57.0095 40.3577 54.7366 42.0898C53.0063 43.0921 51.1834 43.2874 49.2679 42.6758C46.1895 41.1899 45.0013 38.7648 45.7034 35.4004C46.6729 32.7767 48.5445 31.3444 51.3187 31.1035ZM51.3187 32.373C49.1875 32.5653 47.739 33.6721 46.9729 35.6934C46.3678 38.7641 47.556 40.766 50.5374 41.6992C53.4755 41.9649 55.3146 40.6792 56.055 37.8418C56.1717 34.5565 54.5929 32.7336 51.3187 32.373Z" fill="url(#paint1_linear_755_3246)"/>
<path opacity="0.886" fill-rule="evenodd" clip-rule="evenodd" d="M53.7599 34.8143C54.6012 34.7398 54.878 35.0978 54.59 35.8885C53.4316 37.0796 52.2434 38.2352 51.0256 39.3553C50.8302 39.4205 50.6349 39.4205 50.4396 39.3553C49.639 38.5875 48.8741 37.7899 48.1447 36.9628C48.1009 36.2914 48.4101 36.0472 49.0724 36.2303C49.6715 36.7317 50.2413 37.2688 50.7814 37.8417C51.794 36.8454 52.7868 35.8363 53.7599 34.8143Z" fill="url(#paint2_linear_755_3246)"/>
<path opacity="0.911" fill-rule="evenodd" clip-rule="evenodd" d="M36.0832 36.8652C36.8489 36.9671 37.5975 37.1461 38.3293 37.4023C38.7723 37.6011 39.0001 37.9429 39.0129 38.4277C38.9459 38.826 38.8483 39.2166 38.72 39.5996C38.822 39.7661 38.9522 39.9126 39.1106 40.0391C39.5998 39.8196 40.1044 39.6081 40.6243 39.4043C41.0167 39.4378 41.3422 39.6005 41.6008 39.8926C41.8938 40.4134 42.1868 40.9343 42.4797 41.4551C42.5896 41.9335 42.5081 42.3729 42.2356 42.7734C41.8856 42.9728 41.5438 43.1844 41.2102 43.4082C41.1362 43.6298 41.1525 43.8414 41.259 44.043C41.6128 44.1559 41.9708 44.2535 42.3332 44.3359C42.7994 44.5417 43.0272 44.8998 43.0168 45.4102C42.8609 46.1152 42.6819 46.8151 42.4797 47.5098C42.0754 47.9698 41.5709 48.1163 40.9661 47.9492C40.7074 47.9051 40.4632 47.8236 40.2336 47.7051C40.1222 47.911 39.9757 48.09 39.7942 48.2422C40.1296 48.685 40.3575 49.1732 40.4778 49.707C40.4464 50.1934 40.2186 50.5515 39.7942 50.7812C39.3214 51.0665 38.8331 51.327 38.3293 51.5625C37.8564 51.6811 37.4495 51.5671 37.1086 51.2207C36.9116 50.8251 36.6674 50.4671 36.3762 50.1465C36.1924 50.2044 36.0134 50.2695 35.8391 50.3418C35.7784 50.9161 35.5667 51.4207 35.2043 51.8555C34.9871 51.9659 34.7592 52.0473 34.5207 52.0996C33.6832 51.9515 32.8857 51.6911 32.1282 51.3184C31.8227 50.6491 31.839 49.9818 32.177 49.3164C32.0263 49.133 31.8473 48.9865 31.6399 48.877C31.2136 49.1958 30.7416 49.4237 30.2239 49.5605C29.8518 49.5129 29.5426 49.3501 29.2961 49.0723C28.8691 48.4496 28.5273 47.7822 28.2707 47.0703C28.3131 46.8131 28.3945 46.5689 28.5149 46.3379C28.8887 46.0532 29.2793 45.7929 29.6868 45.5566C29.781 45.2771 29.7159 45.0492 29.4914 44.873C28.9149 44.8196 28.4266 44.5917 28.0266 44.1895C27.8731 43.1723 28.0358 42.1957 28.5149 41.2598C28.757 41.0237 29.05 40.9261 29.3938 40.9668C29.8374 41.0255 30.2768 41.0743 30.7122 41.1133C30.8461 40.992 30.9438 40.8455 31.0051 40.6738C30.8013 40.364 30.6223 40.0385 30.468 39.6973C30.3066 39.1232 30.4531 38.6512 30.9075 38.2812C31.4283 37.9883 31.9491 37.6953 32.47 37.4023C32.8882 37.3081 33.2788 37.3732 33.6418 37.5977C33.8901 38.0128 34.1505 38.4197 34.4231 38.8184C34.6095 38.7355 34.8048 38.7029 35.009 38.7207C35.1073 38.2951 35.2212 37.872 35.3508 37.4512C35.5568 37.1951 35.8009 36.9998 36.0832 36.8652ZM36.4739 38.2324C36.907 38.2908 37.2976 38.4373 37.6457 38.6719C37.41 39.202 37.3612 39.7391 37.4993 40.2832C38.3372 41.512 39.3463 41.6747 40.5266 40.7715C40.7755 41.0903 40.9872 41.4321 41.1614 41.7969C40.9217 42.0638 40.6288 42.2591 40.2825 42.3828C39.7443 42.9657 39.6303 43.633 39.9407 44.3848C39.9911 44.6322 40.105 44.8438 40.2825 45.0195C40.745 45.2573 41.2332 45.42 41.7473 45.5078C41.602 45.8938 41.4718 46.2844 41.3567 46.6797C40.854 46.5223 40.3331 46.4571 39.7942 46.4844C39.2907 46.8255 38.8837 47.2649 38.5735 47.8027C38.5083 48.0957 38.5083 48.3887 38.5735 48.6816C38.7649 48.9829 38.9439 49.2922 39.1106 49.6094C38.7933 49.8577 38.4515 50.0692 38.0852 50.2441C37.833 49.9026 37.6051 49.5445 37.4016 49.1699C37.263 49.0762 37.1165 48.9948 36.9622 48.9258C36.4379 48.8791 35.9171 48.9116 35.3997 49.0234C35.1958 49.1008 35.0167 49.2147 34.8625 49.3652C34.6724 49.7348 34.5422 50.1254 34.4719 50.5371C34.434 50.6277 34.3689 50.6929 34.2766 50.7324C33.8964 50.6383 33.522 50.5243 33.1536 50.3906C33.4056 49.881 33.4869 49.3438 33.3977 48.7793C32.5711 47.453 31.5295 47.2577 30.2727 48.1934C30.0611 47.8353 29.8495 47.4772 29.6379 47.1191C30.0551 46.8971 30.4457 46.6366 30.8098 46.3379C31.4172 44.6871 30.8638 43.7105 29.1497 43.4082C29.2781 43.0245 29.3758 42.6339 29.4426 42.2363C29.8606 42.3489 30.2837 42.4466 30.7122 42.5293C31.1598 42.5215 31.5016 42.3262 31.7375 41.9434C32.0904 41.6121 32.302 41.2052 32.3723 40.7227C32.2699 40.2411 32.0745 39.8017 31.7864 39.4043C31.975 39.1793 32.2028 39.0002 32.47 38.8672C32.5929 38.7713 32.7231 38.7388 32.8606 38.7695C33.3063 40.0013 34.1527 40.3919 35.3997 39.9414C35.6629 39.874 35.8746 39.7275 36.0344 39.502C36.2111 39.0859 36.3576 38.6627 36.4739 38.2324Z" fill="url(#paint3_linear_755_3246)"/>
<path opacity="0.911" fill-rule="evenodd" clip-rule="evenodd" d="M35.0096 40.9668C37.3774 40.9758 38.6794 42.1477 38.9158 44.4824C38.8328 46.1771 37.9865 47.3002 36.3768 47.8516C34.3719 48.2408 32.9559 47.5084 32.1287 45.6543C31.628 43.1699 32.5882 41.6074 35.0096 40.9668ZM35.1072 42.2363C34.559 42.3893 34.087 42.6822 33.6912 43.1152C32.993 44.2918 33.1395 45.3498 34.1307 46.2891C35.588 47.0276 36.7111 46.6858 37.4998 45.2637C37.8242 43.3751 37.0268 42.3659 35.1072 42.2363Z" fill="url(#paint4_linear_755_3246)"/>
<path opacity="0.912" fill-rule="evenodd" clip-rule="evenodd" d="M67.8215 44.0917C69.9706 43.936 71.3541 44.88 71.9719 46.9238C72.2087 49.5187 71.0368 50.9835 68.4563 51.3183C67.6405 51.2797 66.9081 51.0194 66.259 50.5371C64.1249 52.3369 62.009 54.1598 59.9113 56.0058C60.7394 57.6805 60.5114 59.1942 59.2277 60.5468C58.0365 61.418 56.7344 61.6133 55.3215 61.1328C53.4812 60.0697 52.8464 58.5235 53.4172 56.4941C51.7211 55.433 50.0121 54.3913 48.2902 53.3691C46.4985 54.9313 44.7082 54.9313 42.9191 53.3691C41.0721 54.4379 39.2817 55.5773 37.5481 56.7871C38.0662 58.9569 37.3176 60.5031 35.302 61.4257C33.3353 61.8986 31.8542 61.2638 30.8586 59.5214C30.1698 57.5186 30.7069 55.9399 32.4699 54.7851C34.1132 54.1063 35.5617 54.383 36.8156 55.6152C38.6141 54.4636 40.4207 53.3244 42.2356 52.1972C41.6996 50.5006 42.1228 49.0846 43.5051 47.9492C45.3385 46.9423 46.9823 47.1865 48.4367 48.6816C49.1792 49.7475 49.3582 50.9031 48.9738 52.1484C50.6552 53.2744 52.3642 54.3649 54.1008 55.4199C55.1526 54.3627 56.406 54.0209 57.8606 54.3945C58.3121 54.5206 58.719 54.7323 59.0813 55.0292C61.1809 53.1901 63.2805 51.3508 65.3801 49.5117C64.2982 46.8418 65.1121 45.0352 67.8215 44.0917ZM68.0168 45.3613C69.9826 45.3577 70.8778 46.3342 70.7023 48.291C70.0987 49.7566 69.0408 50.2611 67.5285 49.8046C66.1841 48.9937 65.8423 47.8706 66.5031 46.4355C66.89 45.9006 67.3946 45.5425 68.0168 45.3613ZM45.1652 48.5839C47.0205 48.6323 47.9157 49.5763 47.8508 51.416C47.267 52.9855 46.1766 53.5226 44.5793 53.0273C43.1429 52.0421 42.8987 50.8214 43.8469 49.3652C44.2265 48.9888 44.6659 48.7284 45.1652 48.5839ZM56.2981 55.5175C58.2653 55.4502 59.1931 56.3943 59.0813 58.3496C58.3783 60.0701 57.1901 60.542 55.5168 59.7656C54.5151 58.9252 54.271 57.8998 54.7844 56.6894C55.177 56.1444 55.6815 55.7538 56.2981 55.5175ZM33.5441 55.7128C35.5117 55.5811 36.472 56.4925 36.425 58.4472C35.8377 60.0998 34.7147 60.637 33.0559 60.0585C31.4568 58.8005 31.3917 57.4659 32.8606 56.0546C33.0974 55.9362 33.3253 55.8223 33.5441 55.7128Z" fill="url(#paint5_linear_755_3246)"/>
<path opacity="0.932" fill-rule="evenodd" clip-rule="evenodd" d="M64.2082 54.9314C66.6173 54.9151 69.0262 54.9314 71.4347 54.9802C71.5745 55.0256 71.6884 55.1071 71.7765 55.2244C71.8417 61.2139 71.8417 67.2036 71.7765 73.1931C71.7277 73.3071 71.6464 73.3884 71.5324 73.4373C69.0585 73.5024 66.5845 73.5024 64.1105 73.4373C64.0617 73.3884 64.0129 73.3396 63.964 73.2908C63.8028 67.3707 63.7702 61.4462 63.8664 55.5173C63.9215 55.2842 64.0353 55.0889 64.2082 54.9314ZM65.0871 56.2009C66.91 56.2009 68.7329 56.2009 70.5558 56.2009C70.5558 61.572 70.5558 66.9431 70.5558 72.3142C68.7329 72.3142 66.91 72.3142 65.0871 72.3142C65.0871 66.9431 65.0871 61.572 65.0871 56.2009Z" fill="url(#paint6_linear_755_3246)"/>
<path opacity="0.934" fill-rule="evenodd" clip-rule="evenodd" d="M42.138 58.2517C44.5796 58.2354 47.021 58.2517 49.4622 58.3006C49.5435 58.3819 49.625 58.4633 49.7063 58.5447C49.7715 63.4275 49.7715 68.3103 49.7063 73.1931C49.6575 73.3071 49.5761 73.3884 49.4622 73.4373C46.9883 73.5024 44.5142 73.5024 42.0403 73.4373C41.9915 73.3884 41.9427 73.3396 41.8938 73.2908C41.7324 68.4463 41.6999 63.596 41.7962 58.74C41.8213 58.5049 41.9352 58.3423 42.138 58.2517ZM43.0169 59.5213C44.8398 59.5213 46.6627 59.5213 48.4856 59.5213C48.4856 63.7856 48.4856 68.0499 48.4856 72.3142C46.6627 72.3142 44.8398 72.3142 43.0169 72.3142C43.0169 68.0499 43.0169 63.7856 43.0169 59.5213Z" fill="url(#paint7_linear_755_3246)"/>
<path opacity="0.936" fill-rule="evenodd" clip-rule="evenodd" d="M31.2018 63.3298C33.5784 63.3135 35.9547 63.3298 38.3308 63.3787C38.4705 63.4241 38.5844 63.5055 38.6726 63.6228C38.7377 66.813 38.7377 70.003 38.6726 73.1931C38.6425 73.272 38.5936 73.3372 38.5261 73.3884C36.0237 73.5014 33.5172 73.5177 31.0065 73.4373C30.9577 73.3884 30.9089 73.3396 30.8601 73.2908C30.6995 70.1717 30.6669 67.0467 30.7624 63.9158C30.8208 63.6468 30.9673 63.4515 31.2018 63.3298ZM31.9831 64.5994C33.806 64.5994 35.6289 64.5994 37.4518 64.5994C37.4518 67.171 37.4518 69.7426 37.4518 72.3142C35.6289 72.3142 33.806 72.3142 31.9831 72.3142C31.9831 69.7426 31.9831 67.171 31.9831 64.5994Z" fill="url(#paint8_linear_755_3246)"/>
<path opacity="0.936" fill-rule="evenodd" clip-rule="evenodd" d="M53.0768 63.3298C55.4534 63.3135 57.8297 63.3298 60.2057 63.3787C60.3455 63.4241 60.4594 63.5055 60.5475 63.6228C60.6127 66.813 60.6127 70.003 60.5475 73.1931C60.5175 73.272 60.4686 73.3372 60.4011 73.3884C57.8987 73.5014 55.3922 73.5177 52.8815 73.4373C52.8327 73.3884 52.7839 73.3396 52.735 73.2908C52.5745 70.1717 52.5419 67.0467 52.6374 63.9158C52.6959 63.6468 52.8424 63.4515 53.0768 63.3298ZM53.8581 64.5994C55.681 64.5994 57.5039 64.5994 59.3268 64.5994C59.3268 67.171 59.3268 69.7426 59.3268 72.3142C57.5039 72.3142 55.681 72.3142 53.8581 72.3142C53.8581 69.7426 53.8581 67.171 53.8581 64.5994Z" fill="url(#paint9_linear_755_3246)"/>
<defs>
<linearGradient id="paint0_linear_755_3246" x1="35.5469" y1="38.5652" x2="62.1583" y2="38.5652" gradientUnits="userSpaceOnUse">
<stop stop-color="#57CBFF"/>
<stop offset="0.904" stop-color="#199BD5"/>
</linearGradient>
<linearGradient id="paint1_linear_755_3246" x1="42.6788" y1="37.8762" x2="57.3628" y2="37.8762" gradientUnits="userSpaceOnUse">
<stop stop-color="#57CBFF"/>
<stop offset="0.904" stop-color="#199BD5"/>
</linearGradient>
<linearGradient id="paint2_linear_755_3246" x1="46.5753" y1="37.418" x2="54.7002" y2="37.418" gradientUnits="userSpaceOnUse">
<stop stop-color="#57CBFF"/>
<stop offset="0.904" stop-color="#199BD5"/>
</linearGradient>
<linearGradient id="paint3_linear_755_3246" x1="24.3801" y1="45.5211" x2="43.0172" y2="45.5211" gradientUnits="userSpaceOnUse">
<stop stop-color="#57CBFF"/>
<stop offset="0.904" stop-color="#199BD5"/>
</linearGradient>
<linearGradient id="paint4_linear_755_3246" x1="30.3496" y1="44.9362" x2="38.9158" y2="44.9362" gradientUnits="userSpaceOnUse">
<stop stop-color="#57CBFF"/>
<stop offset="0.904" stop-color="#199BD5"/>
</linearGradient>
<linearGradient id="paint5_linear_755_3246" x1="20.6808" y1="54.0195" x2="72.0017" y2="54.0195" gradientUnits="userSpaceOnUse">
<stop stop-color="#57CBFF"/>
<stop offset="0.904" stop-color="#199BD5"/>
</linearGradient>
<linearGradient id="paint6_linear_755_3246" x1="61.9003" y1="65.4712" x2="71.8254" y2="65.4712" gradientUnits="userSpaceOnUse">
<stop stop-color="#57CBFF"/>
<stop offset="0.904" stop-color="#199BD5"/>
</linearGradient>
<linearGradient id="paint7_linear_755_3246" x1="39.83" y1="66.905" x2="49.7552" y2="66.905" gradientUnits="userSpaceOnUse">
<stop stop-color="#57CBFF"/>
<stop offset="0.904" stop-color="#199BD5"/>
</linearGradient>
<linearGradient id="paint8_linear_755_3246" x1="28.7969" y1="69.0986" x2="38.7214" y2="69.0986" gradientUnits="userSpaceOnUse">
<stop stop-color="#57CBFF"/>
<stop offset="0.904" stop-color="#199BD5"/>
</linearGradient>
<linearGradient id="paint9_linear_755_3246" x1="50.6719" y1="69.0986" x2="60.5964" y2="69.0986" gradientUnits="userSpaceOnUse">
<stop stop-color="#57CBFF"/>
<stop offset="0.904" stop-color="#199BD5"/>
</linearGradient>
</defs>
</svg>
