<svg width="101" height="100" viewBox="0 0 101 100" fill="none" xmlns="http://www.w3.org/2000/svg">
<circle cx="50.5" cy="50" r="50" fill="#279ED3" fill-opacity="0.1"/>
<g clip-path="url(#clip0_755_3243)">
<path opacity="0.924" fill-rule="evenodd" clip-rule="evenodd" d="M24.9512 31.2988C24.9512 31.2012 24.9512 31.1035 24.9512 31.0059C25.2572 28.7632 26.543 27.5262 28.8086 27.2949C30.3415 27.3318 31.4808 28.0154 32.2266 29.3457C32.9731 31.1333 32.6638 32.7121 31.2988 34.082C30.1793 34.9051 28.9424 35.133 27.5879 34.7656C26.0209 34.1272 25.142 32.9716 24.9512 31.2988ZM28.4668 28.8574C29.9975 28.8745 30.8764 29.6395 31.1035 31.1523C30.8225 32.7415 29.8785 33.4576 28.2715 33.3008C27.2348 32.9396 26.6488 32.2072 26.5137 31.1035C26.685 29.9239 27.336 29.1752 28.4668 28.8574Z" fill="url(#paint0_linear_755_3243)"/>
<path opacity="0.925" fill-rule="evenodd" clip-rule="evenodd" d="M35.3023 28.4668C37.6462 28.4505 39.99 28.4668 42.3335 28.5156C42.8252 28.8099 42.9392 29.2168 42.6753 29.7363C42.5871 29.8536 42.4733 29.935 42.3335 29.9805C39.9573 30.0456 37.5809 30.0456 35.2046 29.9805C34.6615 29.429 34.6941 28.9244 35.3023 28.4668Z" fill="url(#paint1_linear_755_3243)"/>
<path opacity="0.928" fill-rule="evenodd" clip-rule="evenodd" d="M71.1418 28.4668C72.2165 28.4505 73.2907 28.4668 74.3644 28.5156C74.5389 28.5922 74.6853 28.7062 74.8039 28.8574C74.869 30.0293 74.869 31.2012 74.8039 32.373C74.3965 32.8485 73.957 32.881 73.4855 32.4707C73.3369 32.0623 73.2556 31.6391 73.2414 31.2012C71.9556 32.487 70.6698 33.7728 69.384 35.0586C68.8804 35.2703 68.3921 35.2378 67.9191 34.9609C67.4782 34.5037 67.0225 34.0643 66.5519 33.6426C65.4628 34.6828 64.3886 35.7408 63.3293 36.8164C62.318 37.091 61.9435 36.7167 62.2062 35.6933C63.4269 34.4726 64.6476 33.2519 65.8683 32.0312C66.2502 31.8045 66.6408 31.7719 67.0402 31.9336C67.5905 32.3861 68.1113 32.8744 68.6027 33.3984C68.6679 33.4635 68.7329 33.4635 68.798 33.3984C69.9048 32.2917 71.0116 31.1849 72.1183 30.0781C71.7602 30.0456 71.4022 30.013 71.0441 29.9805C70.5011 29.429 70.5336 28.9244 71.1418 28.4668Z" fill="url(#paint2_linear_755_3243)"/>
<path opacity="0.912" fill-rule="evenodd" clip-rule="evenodd" d="M35.3023 31.5918C36.5722 31.5755 37.8417 31.5918 39.1109 31.6406C39.5367 31.858 39.6832 32.1998 39.5503 32.666C39.469 32.8776 39.3225 33.0241 39.1109 33.1055C37.8088 33.1706 36.5067 33.1706 35.2046 33.1055C34.6615 32.554 34.6941 32.0494 35.3023 31.5918Z" fill="url(#paint3_linear_755_3243)"/>
<path opacity="0.925" fill-rule="evenodd" clip-rule="evenodd" d="M49.7557 35.0098C55.387 35.0659 59.7652 37.4097 62.8904 42.041C65.8436 47.1604 65.925 52.3199 63.1346 57.5195C63.9647 58.3496 64.7947 59.1797 65.6248 60.0098C65.7173 61.0783 65.2778 61.3875 64.3065 60.9375C63.6377 60.2524 62.9541 59.5852 62.2557 58.9355C61.3585 60.1745 60.2843 61.2325 59.033 62.1094C61.3442 64.4206 63.6554 66.7317 65.9666 69.043C66.0902 69.0731 66.2042 69.122 66.3084 69.1895C67.3415 68.3521 68.3181 67.4407 69.2381 66.4551C69.3032 66.2598 69.3032 66.0645 69.2381 65.8691C68.3917 65.0228 67.5454 64.1765 66.699 63.3301C66.249 62.3587 66.5582 61.9192 67.6268 62.0117C68.587 62.972 69.5474 63.9323 70.5076 64.8926C70.9634 65.739 70.9634 66.5853 70.5076 67.4316C69.7131 68.3239 68.883 69.1865 68.0174 70.0195C67.0699 70.8125 66.0607 70.9102 64.99 70.3125C62.5609 67.8509 60.1033 65.4257 57.617 63.0371C52.3982 65.7359 47.2386 65.622 42.1385 62.6953C41.8159 62.3247 41.7671 61.9178 41.992 61.4746C42.31 61.2862 42.6518 61.2374 43.0174 61.3281C47.0149 63.7324 51.1816 64.058 55.5174 62.3047C60.8875 59.6901 63.5731 55.377 63.574 49.3652C63.0997 44.0354 60.4793 40.1779 55.7127 37.793C50.668 35.7585 45.9805 36.3771 41.6502 39.6484C37.3691 43.5079 35.9206 48.2442 37.3045 53.8574C37.9796 55.9251 39.0538 57.7479 40.5272 59.3262C40.7074 60.3672 40.3006 60.709 39.3065 60.3516C35.5192 56.0905 34.3636 51.1914 35.8397 45.6543C37.4902 40.5857 40.8594 37.2491 45.9471 35.6445C47.2105 35.3086 48.48 35.097 49.7557 35.0098ZM49.8533 47.998C51.2319 48.0095 52.0457 48.6931 52.2947 50.0488C52.1383 51.2958 51.4384 52.0119 50.1951 52.1973C48.5746 51.9127 47.9236 50.9687 48.242 49.3652C48.5902 48.6743 49.1273 48.2186 49.8533 47.998Z" fill="url(#paint4_linear_755_3243)"/>
<path opacity="0.926" fill-rule="evenodd" clip-rule="evenodd" d="M28.3683 37.3536C30.7405 37.2696 32.1891 38.3764 32.714 40.6739C32.8256 42.8723 31.8327 44.2883 29.7355 44.9219C27.4172 45.2043 25.9035 44.2441 25.1945 42.0411C24.921 39.557 25.979 37.9945 28.3683 37.3536ZM28.5636 38.9161C29.9457 38.8825 30.8084 39.5335 31.1515 40.8692C31.1173 42.6936 30.1896 43.5237 28.3683 43.3594C26.8412 42.7301 26.3692 41.6396 26.9523 40.0879C27.3323 39.4679 27.8694 39.0773 28.5636 38.9161Z" fill="url(#paint5_linear_755_3243)"/>
<path opacity="0.864" fill-rule="evenodd" clip-rule="evenodd" d="M67.5293 38.8184C68.722 38.7681 69.0475 39.2727 68.5059 40.332C67.7223 40.6969 67.234 40.469 67.041 39.6484C67.0947 39.2954 67.2574 39.0188 67.5293 38.8184Z" fill="url(#paint6_linear_755_3243)"/>
<path opacity="0.918" fill-rule="evenodd" clip-rule="evenodd" d="M74.9519 39.209C74.9519 39.4695 74.9519 39.7298 74.9519 39.9903C74.8722 40.1508 74.7419 40.2647 74.5613 40.3321C73.1289 40.3972 71.6967 40.3972 70.2644 40.3321C69.8491 39.9981 69.7676 39.5911 70.0202 39.1114C70.1346 38.9753 70.2811 38.8939 70.4597 38.8672C71.7944 38.8021 73.1289 38.8021 74.4636 38.8672C74.6416 38.9646 74.8044 39.0785 74.9519 39.209Z" fill="url(#paint7_linear_755_3243)"/>
<path opacity="0.857" fill-rule="evenodd" clip-rule="evenodd" d="M67.7241 41.748C68.5045 41.7631 68.8463 42.1537 68.7495 42.9199C68.5197 43.401 68.1454 43.5801 67.6265 43.457C67.053 43.1625 66.9065 42.723 67.187 42.1387C67.3335 41.9464 67.5125 41.8162 67.7241 41.748Z" fill="url(#paint8_linear_755_3243)"/>
<path opacity="0.917" fill-rule="evenodd" clip-rule="evenodd" d="M74.9513 42.2364C74.9513 42.4968 74.9513 42.7572 74.9513 43.0176C74.8039 43.1481 74.6411 43.262 74.463 43.3594C73.0959 43.4245 71.7287 43.4245 70.3615 43.3594C69.9153 43.1113 69.7688 42.7368 69.922 42.2364C70.036 42.1224 70.1499 42.0085 70.2638 41.8946C71.6962 41.8294 73.1284 41.8294 74.5607 41.8946C74.7414 41.9619 74.8716 42.0758 74.9513 42.2364Z" fill="url(#paint9_linear_755_3243)"/>
<path opacity="0.923" fill-rule="evenodd" clip-rule="evenodd" d="M49.1699 43.7987C51.1408 43.6878 53.0289 44.0296 54.834 44.8241C55.4284 45.5136 55.2982 46.0181 54.4434 46.3378C51.8716 45.1405 49.2674 45.0592 46.6309 46.0936C44.6641 46.9548 42.9225 48.1428 41.4062 49.6581C41.2109 49.9511 41.2109 50.244 41.4062 50.537C43.0055 52.1103 44.8446 53.331 46.9238 54.1991C49.3732 55.11 51.782 55.0124 54.1504 53.9061C55.9505 53.0494 57.5618 51.9263 58.9844 50.537C59.165 50.2404 59.165 49.9474 58.9844 49.6581C58.2307 48.9689 57.4819 48.2853 56.7383 47.6073C56.5958 46.9798 56.8399 46.6218 57.4707 46.5331C57.7664 46.567 58.0268 46.6809 58.252 46.8749C58.9653 47.42 59.6327 48.0221 60.2539 48.6815C60.8398 49.6256 60.8398 50.5695 60.2539 51.5136C53.5481 58.024 46.8425 58.024 40.1367 51.5136C39.5508 50.5695 39.5508 49.6256 40.1367 48.6815C42.6328 46.0908 45.6439 44.4633 49.1699 43.7987ZM49.8535 47.9979C49.1275 48.2184 48.5904 48.6742 48.2422 49.3651C47.9238 50.9685 48.5748 51.9126 50.1953 52.1971C51.4386 52.0118 52.1385 51.2957 52.2949 50.0487C52.0459 48.6929 51.2321 48.0094 49.8535 47.9979Z" fill="url(#paint10_linear_755_3243)"/>
<path opacity="0.964" fill-rule="evenodd" clip-rule="evenodd" d="M74.9511 45.166C74.9511 45.459 74.9511 45.752 74.9511 46.0449C74.8411 46.1057 74.7434 46.187 74.6581 46.2891C73.1933 46.3542 71.7285 46.3542 70.2636 46.2891C69.9837 46.1531 69.8536 45.9252 69.873 45.6055C69.8536 45.2858 69.9837 45.0579 70.2636 44.9219C71.7285 44.8568 73.1933 44.8568 74.6581 44.9219C74.7434 45.024 74.8411 45.1053 74.9511 45.166Z" fill="url(#paint11_linear_755_3243)"/>
<path opacity="0.927" fill-rule="evenodd" clip-rule="evenodd" d="M28.2712 47.3145C31.4833 47.3198 32.9319 48.9148 32.6169 52.0996C31.8845 54.2002 30.4034 55.1279 28.1735 54.8828C25.8808 54.183 24.888 52.6367 25.195 50.2441C25.6735 48.6747 26.6989 47.6981 28.2712 47.3145ZM28.4665 48.877C30.2867 48.8255 31.1819 49.7044 31.1521 51.5137C30.601 53.1319 29.5105 53.669 27.8806 53.125C26.6553 52.2826 26.3786 51.1921 27.0505 49.8535C27.4423 49.3908 27.9143 49.0653 28.4665 48.877Z" fill="url(#paint12_linear_755_3243)"/>
<path opacity="0.867" fill-rule="evenodd" clip-rule="evenodd" d="M67.8218 47.7051C68.5535 47.7689 68.8628 48.1596 68.7495 48.877C68.5461 49.4047 68.1718 49.5837 67.6265 49.4141C67.053 49.1195 66.9065 48.6801 67.187 48.0957C67.3836 47.925 67.5952 47.7947 67.8218 47.7051Z" fill="url(#paint13_linear_755_3243)"/>
<path opacity="0.92" fill-rule="evenodd" clip-rule="evenodd" d="M74.9507 48.1934C74.9507 48.4538 74.9507 48.7142 74.9507 48.9746C74.8394 49.1017 74.7092 49.2156 74.5601 49.3164C73.1604 49.3816 71.7606 49.3816 70.3609 49.3164C69.8692 49.0222 69.7552 48.6153 70.0191 48.0957C70.1073 47.9784 70.2211 47.897 70.3609 47.8516C71.7281 47.7865 73.0952 47.7865 74.4624 47.8516C74.6405 47.949 74.8033 48.0629 74.9507 48.1934Z" fill="url(#paint14_linear_755_3243)"/>
<path opacity="0.922" fill-rule="evenodd" clip-rule="evenodd" d="M74.9507 51.2207C74.9507 51.4812 74.9507 51.7415 74.9507 52.002C74.7932 52.1748 74.5978 52.2887 74.3647 52.3438C73.0627 52.4089 71.7605 52.4089 70.4585 52.3438C69.9306 52.1504 69.7516 51.776 69.9214 51.2207C70.0353 51.1068 70.1492 50.9929 70.2632 50.8789C71.6955 50.8138 73.1277 50.8138 74.5601 50.8789C74.7407 50.9463 74.871 51.0602 74.9507 51.2207Z" fill="url(#paint15_linear_755_3243)"/>
<path opacity="0.867" fill-rule="evenodd" clip-rule="evenodd" d="M67.5297 53.7598C68.7223 53.7095 69.0478 54.2141 68.5062 55.2734C68.0435 55.5045 67.6204 55.4557 67.2367 55.127C66.9359 54.5796 67.0336 54.1239 67.5297 53.7598Z" fill="url(#paint16_linear_755_3243)"/>
<path opacity="0.918" fill-rule="evenodd" clip-rule="evenodd" d="M74.9519 54.1504C74.9519 54.4109 74.9519 54.6712 74.9519 54.9317C74.8722 55.0922 74.7419 55.2061 74.5613 55.2735C73.1289 55.3386 71.6967 55.3386 70.2644 55.2735C69.8491 54.9395 69.7676 54.5325 70.0202 54.0528C70.1346 53.9167 70.2811 53.8353 70.4597 53.8086C71.7944 53.7435 73.1289 53.7435 74.4636 53.8086C74.6416 53.906 74.8044 54.0199 74.9519 54.1504Z" fill="url(#paint17_linear_755_3243)"/>
<path opacity="0.943" fill-rule="evenodd" clip-rule="evenodd" d="M24.9512 72.1192C24.9512 71.8587 24.9512 71.5984 24.9512 71.3379C25.0148 71.2802 25.0799 71.2152 25.1465 71.1426C25.2277 70.2328 25.2766 69.3214 25.293 68.4082C25.3908 68 25.635 67.7233 26.0254 67.5781C27.2717 67.4844 28.5087 67.5169 29.7363 67.6758C30.0541 67.9045 30.2332 68.2138 30.2734 68.6035C30.3222 69.3841 30.3385 70.1654 30.3223 70.9473C30.5827 70.9473 30.8431 70.9473 31.1035 70.9473C31.0872 68.5382 31.1035 66.1293 31.1523 63.7207C31.2988 63.4441 31.5104 63.2324 31.7871 63.086C32.9915 63.0208 34.196 63.0208 35.4004 63.086C35.7156 63.2386 35.9272 63.4827 36.0352 63.8184C36.084 66.1945 36.1003 68.5707 36.084 70.9473C36.4095 70.9473 36.7351 70.9473 37.0605 70.9473C37.0442 69.417 37.0605 67.887 37.1094 66.3574C37.2559 66.0808 37.4675 65.8692 37.7441 65.7227C38.9485 65.6575 40.153 65.6575 41.3574 65.7227C41.6727 65.8753 41.8843 66.1195 41.9922 66.4551C42.041 67.9522 42.0573 69.4495 42.041 70.9473C43.0507 70.9311 44.0598 70.9473 45.0684 70.9961C45.4372 71.2804 45.5512 71.6547 45.4102 72.1192C45.2916 72.2704 45.1451 72.3843 44.9707 72.461C38.4603 72.5261 31.9499 72.5261 25.4395 72.461C25.2614 72.3636 25.0987 72.2496 24.9512 72.1192ZM32.666 64.5996C33.2845 64.5996 33.903 64.5996 34.5215 64.5996C34.5215 66.7156 34.5215 68.8314 34.5215 70.9473C33.903 70.9473 33.2845 70.9473 32.666 70.9473C32.666 68.8314 32.666 66.7156 32.666 64.5996ZM38.623 67.1387C39.2415 67.1387 39.8601 67.1387 40.4785 67.1387C40.4785 68.4082 40.4785 69.6778 40.4785 70.9473C39.8601 70.9473 39.2415 70.9473 38.623 70.9473C38.623 69.6778 38.623 68.4082 38.623 67.1387ZM26.8066 69.0918C27.4577 69.0918 28.1087 69.0918 28.7598 69.0918C28.7598 69.7103 28.7598 70.3288 28.7598 70.9473C28.1087 70.9473 27.4577 70.9473 26.8066 70.9473C26.8066 70.3288 26.8066 69.7103 26.8066 69.0918Z" fill="url(#paint18_linear_755_3243)"/>
<path opacity="0.882" fill-rule="evenodd" clip-rule="evenodd" d="M48.1935 67.92C49.1554 67.8554 49.5298 68.2785 49.3166 69.1895C49.028 69.5584 48.6537 69.6722 48.1935 69.5313C47.7473 69.2832 47.6008 68.9088 47.7541 68.4083C47.8542 68.1947 48.0006 68.0319 48.1935 67.92Z" fill="url(#paint19_linear_755_3243)"/>
<path opacity="0.918" fill-rule="evenodd" clip-rule="evenodd" d="M51.0248 67.9199C52.3599 67.9036 53.6945 67.9199 55.0287 67.9688C55.5567 68.1621 55.7357 68.5365 55.5659 69.0918C55.4519 69.2058 55.338 69.3196 55.2241 69.4336C53.7917 69.4987 52.3595 69.4987 50.9272 69.4336C50.6326 69.2843 50.5025 69.0402 50.5366 68.7012C50.541 68.3392 50.7038 68.0788 51.0248 67.9199Z" fill="url(#paint20_linear_755_3243)"/>
<path opacity="0.874" fill-rule="evenodd" clip-rule="evenodd" d="M48.2909 70.8496C48.9611 70.7712 49.3517 71.0641 49.4628 71.7285C49.3524 72.4092 48.9618 72.6859 48.2909 72.5586C47.515 71.9892 47.515 71.4195 48.2909 70.8496Z" fill="url(#paint21_linear_755_3243)"/>
<path opacity="0.917" fill-rule="evenodd" clip-rule="evenodd" d="M50.9269 70.9473C52.3595 70.931 53.7918 70.9473 55.2238 70.9961C55.5863 71.2502 55.7001 71.592 55.5656 72.0215C55.4842 72.2331 55.3377 72.3796 55.1261 72.461C53.7589 72.5261 52.3917 72.5261 51.0246 72.461C50.5632 72.2232 50.4167 71.8487 50.5851 71.3379C50.6525 71.1572 50.7663 71.027 50.9269 70.9473Z" fill="url(#paint22_linear_755_3243)"/>
</g>
<defs>
<linearGradient id="paint0_linear_755_3243" x1="23.1205" y1="31.6363" x2="32.6224" y2="31.6363" gradientUnits="userSpaceOnUse">
<stop stop-color="#57CBFF"/>
<stop offset="0.904" stop-color="#199BD5"/>
</linearGradient>
<linearGradient id="paint1_linear_755_3243" x1="32.9128" y1="29.3519" x2="42.8135" y2="29.3519" gradientUnits="userSpaceOnUse">
<stop stop-color="#57CBFF"/>
<stop offset="0.904" stop-color="#199BD5"/>
</linearGradient>
<linearGradient id="paint2_linear_755_3243" x1="59.0877" y1="33.2578" x2="74.8527" y2="33.2578" gradientUnits="userSpaceOnUse">
<stop stop-color="#57CBFF"/>
<stop offset="0.904" stop-color="#199BD5"/>
</linearGradient>
<linearGradient id="paint3_linear_755_3243" x1="33.6802" y1="32.4769" x2="39.5977" y2="32.4769" gradientUnits="userSpaceOnUse">
<stop stop-color="#57CBFF"/>
<stop offset="0.904" stop-color="#199BD5"/>
</linearGradient>
<linearGradient id="paint4_linear_755_3243" x1="26.716" y1="55.2871" x2="70.8494" y2="55.2871" gradientUnits="userSpaceOnUse">
<stop stop-color="#57CBFF"/>
<stop offset="0.904" stop-color="#199BD5"/>
</linearGradient>
<linearGradient id="paint5_linear_755_3243" x1="23.3458" y1="41.6792" x2="32.7224" y2="41.6792" gradientUnits="userSpaceOnUse">
<stop stop-color="#57CBFF"/>
<stop offset="0.904" stop-color="#199BD5"/>
</linearGradient>
<linearGradient id="paint6_linear_755_3243" x1="66.6309" y1="39.7726" x2="68.7596" y2="39.7726" gradientUnits="userSpaceOnUse">
<stop stop-color="#57CBFF"/>
<stop offset="0.904" stop-color="#199BD5"/>
</linearGradient>
<linearGradient id="paint7_linear_755_3243" x1="68.6659" y1="39.7062" x2="74.9519" y2="39.7062" gradientUnits="userSpaceOnUse">
<stop stop-color="#57CBFF"/>
<stop offset="0.904" stop-color="#199BD5"/>
</linearGradient>
<linearGradient id="paint8_linear_755_3243" x1="66.6392" y1="42.7404" x2="68.7655" y2="42.7404" gradientUnits="userSpaceOnUse">
<stop stop-color="#57CBFF"/>
<stop offset="0.904" stop-color="#199BD5"/>
</linearGradient>
<linearGradient id="paint9_linear_755_3243" x1="68.6491" y1="42.7335" x2="74.9513" y2="42.7335" gradientUnits="userSpaceOnUse">
<stop stop-color="#57CBFF"/>
<stop offset="0.904" stop-color="#199BD5"/>
</linearGradient>
<linearGradient id="paint10_linear_755_3243" x1="34.6868" y1="50.9477" x2="60.6934" y2="50.9477" gradientUnits="userSpaceOnUse">
<stop stop-color="#57CBFF"/>
<stop offset="0.904" stop-color="#199BD5"/>
</linearGradient>
<linearGradient id="paint11_linear_755_3243" x1="68.6588" y1="45.7054" x2="74.9511" y2="45.7054" gradientUnits="userSpaceOnUse">
<stop stop-color="#57CBFF"/>
<stop offset="0.904" stop-color="#199BD5"/>
</linearGradient>
<linearGradient id="paint12_linear_755_3243" x1="23.3464" y1="51.6365" x2="32.6591" y2="51.6365" gradientUnits="userSpaceOnUse">
<stop stop-color="#57CBFF"/>
<stop offset="0.904" stop-color="#199BD5"/>
</linearGradient>
<linearGradient id="paint13_linear_755_3243" x1="66.6375" y1="48.7113" x2="68.7723" y2="48.7113" gradientUnits="userSpaceOnUse">
<stop stop-color="#57CBFF"/>
<stop offset="0.904" stop-color="#199BD5"/>
</linearGradient>
<linearGradient id="paint14_linear_755_3243" x1="68.671" y1="48.6905" x2="74.9507" y2="48.6905" gradientUnits="userSpaceOnUse">
<stop stop-color="#57CBFF"/>
<stop offset="0.904" stop-color="#199BD5"/>
</linearGradient>
<linearGradient id="paint15_linear_755_3243" x1="68.6444" y1="51.7179" x2="74.9507" y2="51.7179" gradientUnits="userSpaceOnUse">
<stop stop-color="#57CBFF"/>
<stop offset="0.904" stop-color="#199BD5"/>
</linearGradient>
<linearGradient id="paint16_linear_755_3243" x1="66.6623" y1="54.6996" x2="68.76" y2="54.6996" gradientUnits="userSpaceOnUse">
<stop stop-color="#57CBFF"/>
<stop offset="0.904" stop-color="#199BD5"/>
</linearGradient>
<linearGradient id="paint17_linear_755_3243" x1="68.6659" y1="54.6476" x2="74.9519" y2="54.6476" gradientUnits="userSpaceOnUse">
<stop stop-color="#57CBFF"/>
<stop offset="0.904" stop-color="#199BD5"/>
</linearGradient>
<linearGradient id="paint18_linear_755_3243" x1="20.055" y1="68.4193" x2="45.4686" y2="68.4193" gradientUnits="userSpaceOnUse">
<stop stop-color="#57CBFF"/>
<stop offset="0.904" stop-color="#199BD5"/>
</linearGradient>
<linearGradient id="paint19_linear_755_3243" x1="47.2946" y1="68.866" x2="49.3746" y2="68.866" gradientUnits="userSpaceOnUse">
<stop stop-color="#57CBFF"/>
<stop offset="0.904" stop-color="#199BD5"/>
</linearGradient>
<linearGradient id="paint20_linear_755_3243" x1="49.315" y1="68.8051" x2="55.6279" y2="68.8051" gradientUnits="userSpaceOnUse">
<stop stop-color="#57CBFF"/>
<stop offset="0.904" stop-color="#199BD5"/>
</linearGradient>
<linearGradient id="paint21_linear_755_3243" x1="47.2905" y1="71.8323" x2="49.4628" y2="71.8323" gradientUnits="userSpaceOnUse">
<stop stop-color="#57CBFF"/>
<stop offset="0.904" stop-color="#199BD5"/>
</linearGradient>
<linearGradient id="paint22_linear_755_3243" x1="49.2999" y1="71.8324" x2="55.6202" y2="71.8324" gradientUnits="userSpaceOnUse">
<stop stop-color="#57CBFF"/>
<stop offset="0.904" stop-color="#199BD5"/>
</linearGradient>
<clipPath id="clip0_755_3243">
<rect width="50" height="50" fill="white" transform="translate(25 25)"/>
</clipPath>
</defs>
</svg>
