<svg width="100" height="100" viewBox="0 0 100 100" fill="none" xmlns="http://www.w3.org/2000/svg">
<circle cx="50" cy="50" r="50" fill="#279ED3" fill-opacity="0.1"/>
<g clip-path="url(#clip0_755_3251)">
<path opacity="0.91" fill-rule="evenodd" clip-rule="evenodd" d="M49.9521 25.5371C52.9794 26.8309 55.9904 28.1656 58.9853 29.541C59.1139 32.3646 59.1791 35.1967 59.1806 38.0371C65.2664 41.5438 68.6518 46.8173 69.3369 53.8574C70.6698 54.4972 72.0208 55.0994 73.3896 55.6641C73.7759 55.8159 74.1177 56.0274 74.415 56.2988C74.4801 60.1074 74.4801 63.916 74.415 67.7246C71.503 69.1724 68.557 70.5559 65.5771 71.875C65.4143 71.9401 65.2516 71.9401 65.0888 71.875C64.0583 71.376 63.0166 70.9039 61.9638 70.459C55.8003 74.8205 49.1922 75.6181 42.1396 72.8516C40.6886 72.1757 39.3214 71.3781 38.038 70.459C37.0504 70.8714 36.0739 71.3108 35.1084 71.7773C34.8567 71.8994 34.5963 71.932 34.3271 71.875C31.5068 70.5462 28.6747 69.2441 25.831 67.9688C25.6369 67.8399 25.523 67.6609 25.4892 67.4316C25.3934 63.6823 25.4259 59.9389 25.5869 56.2012C27.2332 55.3862 28.9096 54.6375 30.6162 53.9551C31.2726 46.8747 34.658 41.5688 40.7724 38.0371C40.8538 35.2382 40.9026 32.4387 40.9189 29.6387C43.9155 28.2228 46.9265 26.8556 49.9521 25.5371ZM49.7568 26.9043C49.9227 26.8887 50.0855 26.9049 50.2451 26.9531C52.4796 27.989 54.7257 28.9981 56.9834 29.9805C54.6459 31.0525 52.3184 32.1429 50.0009 33.252C47.6483 32.1489 45.2882 31.0584 42.9209 29.9805C45.2199 28.977 47.4985 27.9516 49.7568 26.9043ZM42.042 30.9082C44.4483 32.0136 46.8571 33.1204 49.2685 34.2285C49.3987 37.386 49.3987 40.5437 49.2685 43.7012C46.8686 42.6069 44.476 41.5002 42.0908 40.3809C42.042 37.2234 42.0256 34.0659 42.042 30.9082ZM57.667 31.0059C57.7971 32.5507 57.8622 34.1295 57.8623 35.7422C57.8297 37.321 57.7971 38.8997 57.7646 40.4785C55.3647 41.5728 52.9721 42.6795 50.5869 43.7988C50.5217 40.6413 50.5217 37.4837 50.5869 34.3262C52.9601 33.2288 55.3202 32.1221 57.667 31.0059ZM40.7724 39.4043C40.8532 39.9399 40.902 40.4934 40.9189 41.0645C40.9554 41.1539 41.0043 41.2354 41.0654 41.3086C44.0381 42.6729 47.0167 44.0238 50.0009 45.3613C52.9644 44.0505 55.9103 42.6996 58.8388 41.3086C58.9202 41.2272 59.0016 41.1458 59.083 41.0645C59.0997 40.5406 59.1485 40.0197 59.2295 39.502C64.3755 42.6639 67.2727 47.2537 67.9209 53.2715C67.1721 52.9297 66.4235 52.5879 65.6748 52.2461C65.4469 52.181 65.219 52.181 64.9912 52.2461C62.366 53.4448 59.7293 54.6167 57.081 55.7617C56.7628 55.88 56.4861 56.059 56.2509 56.2988C56.1858 60.0749 56.1858 63.8509 56.2509 67.627C56.2875 67.7164 56.3363 67.7979 56.3974 67.8711C57.7888 68.541 59.1886 69.1921 60.5966 69.8242C55.1837 73.5177 49.3895 74.2338 43.2138 71.9727C41.8366 71.431 40.567 70.7148 39.4052 69.8242C40.663 69.2115 41.9326 68.6256 43.2138 68.0664C43.3882 67.9897 43.5347 67.8759 43.6533 67.7246C43.7184 63.8835 43.7184 60.0423 43.6533 56.2012C40.7618 54.8451 37.8483 53.5268 34.913 52.2461C34.7177 52.181 34.5224 52.181 34.3271 52.2461C33.5499 52.5974 32.7687 52.9392 31.9834 53.2715C32.72 47.2609 35.6497 42.6386 40.7724 39.4043ZM34.5224 53.4668C36.8901 54.4553 39.2338 55.497 41.5537 56.5918C39.255 57.6923 36.9439 58.7665 34.6201 59.8145C32.2963 58.7665 29.9851 57.6923 27.6865 56.5918C29.971 55.547 32.2496 54.5053 34.5224 53.4668ZM65.1865 53.4668C67.5824 54.4366 69.9586 55.462 72.3154 56.543C70.0118 57.6422 67.7005 58.7327 65.3818 59.8145C63.0233 58.749 60.6795 57.6586 58.3505 56.543C60.6596 55.5627 62.9382 54.5373 65.1865 53.4668ZM26.7099 57.5684C29.1519 58.6347 31.577 59.7414 33.9853 60.8887C34.0504 64.0462 34.0504 67.2038 33.9853 70.3613C31.6001 69.242 29.2075 68.1353 26.8076 67.041C26.7099 63.8842 26.6774 60.7266 26.7099 57.5684ZM42.3349 57.5684C42.4651 59.1132 42.5301 60.692 42.5302 62.3047C42.4977 63.8835 42.4651 65.4622 42.4326 67.041C40.0327 68.1353 37.6401 69.242 35.2548 70.3613C35.1897 67.2038 35.1897 64.0462 35.2548 60.8887C37.6281 59.7913 39.9881 58.6846 42.3349 57.5684ZM57.4716 57.5684C59.8759 58.6467 62.2685 59.7534 64.6494 60.8887C64.7145 64.0462 64.7145 67.2038 64.6494 70.3613C62.2814 69.2356 59.905 68.1289 57.5205 67.041C57.4716 63.8836 57.4553 60.7261 57.4716 57.5684ZM73.0966 57.5684C73.2268 59.1132 73.2919 60.692 73.292 62.3047C73.2594 63.8835 73.2268 65.4622 73.1943 67.041C70.7944 68.1353 68.4018 69.242 66.0166 70.3613C65.9514 67.2038 65.9514 64.0462 66.0166 60.8887C68.3898 59.7913 70.7499 58.6846 73.0966 57.5684Z" fill="url(#paint0_linear_755_3251)"/>
</g>
<defs>
<linearGradient id="paint0_linear_755_3251" x1="13.7356" y1="53.3354" x2="74.4638" y2="53.3354" gradientUnits="userSpaceOnUse">
<stop stop-color="#57CBFF"/>
<stop offset="0.904" stop-color="#199BD5"/>
</linearGradient>
<clipPath id="clip0_755_3251">
<rect width="50" height="50" fill="white" transform="translate(25 25)"/>
</clipPath>
</defs>
</svg>
