<svg width="101" height="100" viewBox="0 0 101 100" fill="none" xmlns="http://www.w3.org/2000/svg">
<circle cx="50.5" cy="50" r="50" fill="#279ED3" fill-opacity="0.1"/>
<g clip-path="url(#clip0_755_3245)">
<path opacity="0.937" fill-rule="evenodd" clip-rule="evenodd" d="M75.9512 65.0877C75.9512 65.8038 75.9512 66.52 75.9512 67.2361C75.346 69.7784 73.7835 71.4223 71.2637 72.1677C64.4963 72.2809 57.7255 72.3298 50.9512 72.3142C44.1769 72.3298 37.4061 72.2809 30.6387 72.1677C28.1189 71.4223 26.5564 69.7784 25.9512 67.2361C25.9512 66.52 25.9512 65.8038 25.9512 65.0877C26.1382 64.3494 26.4148 63.6333 26.7812 62.9392C33.1536 52.0503 39.5012 41.1454 45.8242 30.2244C47.5007 28.0443 49.6979 27.2143 52.416 27.7341C53.9087 28.0815 55.0969 28.879 55.9805 30.1267C62.3606 41.0642 68.7409 52.0017 75.1211 62.9392C75.4875 63.6333 75.7642 64.3494 75.9512 65.0877ZM50.1699 29.4431C51.8259 29.2624 53.2093 29.7832 54.3203 31.0056C60.7005 41.9431 67.0808 52.8806 73.4609 63.8181C74.6658 66.1768 74.2264 68.1788 72.1426 69.824C71.6863 70.101 71.198 70.2964 70.6777 70.4099C57.5267 70.4751 44.3757 70.4751 31.2246 70.4099C28.5148 69.5312 27.4243 67.6921 27.9531 64.8923C28.0891 64.5226 28.2519 64.1646 28.4414 63.8181C34.6914 53.0759 40.9414 42.3338 47.1914 31.5916C47.902 30.4727 48.8948 29.7566 50.1699 29.4431Z" fill="url(#paint0_linear_755_3245)"/>
<path opacity="0.94" fill-rule="evenodd" clip-rule="evenodd" d="M50.6584 38.5254C53.0064 38.5789 54.4224 39.7508 54.9065 42.041C55.0013 46.0486 54.9688 50.0525 54.8088 54.0527C53.9266 56.4719 52.2176 57.3996 49.6819 56.8359C48.1528 56.269 47.2575 55.1785 46.9963 53.5645C46.9015 49.5568 46.934 45.5529 47.094 41.5527C47.646 39.779 48.8342 38.7698 50.6584 38.5254ZM50.6584 40.3809C49.7264 40.6128 49.1241 41.1987 48.8518 42.1387C48.7866 45.8821 48.7866 49.6257 48.8518 53.3691C49.1067 54.4864 49.8065 55.1049 50.9514 55.2246C52.0963 55.1049 52.7961 54.4864 53.051 53.3691C53.1161 49.6257 53.1161 45.8821 53.051 42.1387C52.7027 40.9468 51.9051 40.3608 50.6584 40.3809Z" fill="url(#paint1_linear_755_3245)"/>
<path opacity="0.938" fill-rule="evenodd" clip-rule="evenodd" d="M50.267 59.1309C52.9326 58.9884 54.609 60.1929 55.2963 62.7442C55.5602 65.425 54.4046 67.134 51.8295 67.8712C49.111 68.1652 47.3694 67.0096 46.6049 64.4044C46.3599 61.6013 47.5806 59.8434 50.267 59.1309ZM50.3647 60.9864C48.9097 61.5189 48.275 62.5606 48.4604 64.1114C49.0564 65.7848 50.2121 66.387 51.9272 65.9181C53.1674 65.3094 53.672 64.3165 53.4409 62.9395C52.9307 61.4877 51.9053 60.8366 50.3647 60.9864Z" fill="url(#paint2_linear_755_3245)"/>
</g>
<defs>
<linearGradient id="paint0_linear_755_3245" x1="14.0194" y1="53.0005" x2="75.9512" y2="53.0005" gradientUnits="userSpaceOnUse">
<stop stop-color="#57CBFF"/>
<stop offset="0.904" stop-color="#199BD5"/>
</linearGradient>
<linearGradient id="paint1_linear_755_3245" x1="45.0304" y1="49.0199" x2="54.9594" y2="49.0199" gradientUnits="userSpaceOnUse">
<stop stop-color="#57CBFF"/>
<stop offset="0.904" stop-color="#199BD5"/>
</linearGradient>
<linearGradient id="paint2_linear_755_3245" x1="44.484" y1="64.1175" x2="55.3331" y2="64.1175" gradientUnits="userSpaceOnUse">
<stop stop-color="#57CBFF"/>
<stop offset="0.904" stop-color="#199BD5"/>
</linearGradient>
<clipPath id="clip0_755_3245">
<rect width="50" height="50" fill="white" transform="translate(26 25)"/>
</clipPath>
</defs>
</svg>
