<svg width="101" height="100" viewBox="0 0 101 100" fill="none" xmlns="http://www.w3.org/2000/svg">
<circle cx="50.5" cy="50" r="50" fill="#279ED3" fill-opacity="0.1"/>
<g clip-path="url(#clip0_755_3193)">
<path opacity="0.95" fill-rule="evenodd" clip-rule="evenodd" d="M47.8025 25.7324C57.1997 25.264 64.6378 28.8122 70.117 36.3769C74.675 43.6432 75.4237 51.293 72.3631 59.3261C68.8016 67.1833 62.7957 72.0173 54.3455 73.8281C45.1213 75.1811 37.4227 72.3979 31.2498 65.4785C25.9366 58.6714 24.4392 51.0869 26.7576 42.7246C29.7613 34.0567 35.7021 28.5717 44.5799 26.2695C45.6614 26.0479 46.7356 25.8688 47.8025 25.7324ZM49.7557 27.2949C55.7208 27.3824 60.8966 29.4169 65.283 33.3984C54.6548 44.0266 44.0265 54.6549 33.3982 65.2832C28.3923 59.7026 26.5042 53.1921 27.7342 45.7519C29.4161 38.0374 33.8269 32.5197 40.9666 29.1992C43.7895 28.0066 46.7191 27.3718 49.7557 27.2949ZM66.4549 34.6191C70.4605 38.9167 72.4787 44.0274 72.5096 49.9511C72.2314 58.601 68.4228 65.1603 61.0838 69.6289C53.3666 73.6516 45.7168 73.5213 38.1346 69.2382C36.8566 68.4684 35.6848 67.5569 34.6189 66.5039C45.2506 55.8885 55.8626 45.2602 66.4549 34.6191ZM45.9471 36.3769C46.0444 38.02 46.077 39.6801 46.0447 41.3574C44.3843 41.3737 42.7241 41.3574 41.0643 41.3085C42.7115 39.6776 44.3392 38.0336 45.9471 36.3769Z" fill="url(#paint0_linear_755_3193)"/>
<path opacity="0.981" fill-rule="evenodd" clip-rule="evenodd" d="M46.435 33.5449C51.383 33.5286 56.3309 33.5449 61.2787 33.5938C61.4577 33.6426 61.5717 33.7565 61.6205 33.9355C61.7123 34.792 61.6798 35.6383 61.5229 36.4746C61.1272 36.7131 60.7202 36.7294 60.3022 36.5234C60.241 36.4502 60.1922 36.3688 60.1557 36.2793C60.107 35.89 60.0907 35.4994 60.1069 35.1074C55.9402 35.1074 51.7736 35.1074 47.6069 35.1074C47.6232 37.5816 47.6069 40.0556 47.558 42.5293C47.5215 42.6188 47.4727 42.7002 47.4116 42.7734C45.9229 42.8859 44.4255 42.9348 42.9194 42.9199C41.487 42.9036 40.0548 42.8874 38.6225 42.8711C38.328 42.7218 38.1978 42.4776 38.2319 42.1387C38.2333 41.9303 38.2822 41.735 38.3784 41.5527C41.0536 38.8611 43.7392 36.1919 46.435 33.5449ZM45.9467 36.377C44.3388 38.0337 42.7112 39.6776 41.0639 41.3086C42.7238 41.3574 44.3839 41.3737 46.0444 41.3574C46.0766 39.6802 46.0441 38.02 45.9467 36.377Z" fill="url(#paint1_linear_755_3193)"/>
<path opacity="0.98" fill-rule="evenodd" clip-rule="evenodd" d="M49.56 40.5762C51.1228 40.5599 52.6853 40.5762 54.2475 40.625C54.4265 40.6738 54.5405 40.7878 54.5893 40.9668C54.6544 41.2273 54.6544 41.4876 54.5893 41.7481C54.5405 41.9271 54.4265 42.041 54.2475 42.0899C52.685 42.155 51.1225 42.155 49.56 42.0899C49.2655 41.9405 49.1353 41.6964 49.1694 41.3574C49.1481 41.0092 49.2784 40.7488 49.56 40.5762Z" fill="url(#paint2_linear_755_3193)"/>
<path opacity="0.997" fill-rule="evenodd" clip-rule="evenodd" d="M60.4979 41.3575C60.7603 41.3415 61.0208 41.3578 61.2792 41.4063C61.4582 41.4552 61.5722 41.5691 61.621 41.7481C61.7181 49.8941 61.6855 58.0321 61.5233 66.1622C61.4501 66.2233 61.3686 66.2722 61.2792 66.3087C53.7271 66.3738 46.175 66.3738 38.6229 66.3087C38.4439 66.2599 38.33 66.1459 38.2811 65.9669C38.1924 65.37 38.2249 64.7841 38.3788 64.2091C38.8019 63.9486 39.2252 63.9486 39.6483 64.2091C39.7585 64.3893 39.8073 64.5846 39.7948 64.795C46.5656 64.795 53.3365 64.795 60.1073 64.795C60.091 57.1127 60.1073 49.4304 60.1561 41.7481C60.2235 41.5675 60.3374 41.4372 60.4979 41.3575Z" fill="url(#paint3_linear_755_3193)"/>
<path opacity="0.992" fill-rule="evenodd" clip-rule="evenodd" d="M38.6231 44.4825C38.8855 44.4665 39.1459 44.4828 39.4043 44.5313C39.5833 44.5802 39.6973 44.6941 39.7461 44.8731C39.8113 49.0398 39.8113 53.2064 39.7461 57.3731C39.5968 57.6677 39.3527 57.7978 39.0137 57.7638C38.6747 57.7978 38.4306 57.6677 38.2813 57.3731C38.2161 53.2064 38.2161 49.0398 38.2813 44.8731C38.3487 44.6925 38.4625 44.5622 38.6231 44.4825Z" fill="url(#paint4_linear_755_3193)"/>
<path opacity="0.986" fill-rule="evenodd" clip-rule="evenodd" d="M42.5287 45.2637C44.8727 45.2474 47.2164 45.2637 49.56 45.3125C49.739 45.3613 49.853 45.4753 49.9018 45.6543C49.9669 45.9148 49.9669 46.1751 49.9018 46.4356C49.853 46.6146 49.739 46.7285 49.56 46.7774C47.2162 46.8425 44.8725 46.8425 42.5287 46.7774C42.2342 46.628 42.104 46.3839 42.1381 46.0449C42.1168 45.6967 42.2471 45.4363 42.5287 45.2637Z" fill="url(#paint5_linear_755_3193)"/>
<path opacity="0.971" fill-rule="evenodd" clip-rule="evenodd" d="M42.5287 49.9512C43.5709 49.9349 44.6126 49.9512 45.6537 50C45.8327 50.0488 45.9467 50.1628 45.9955 50.3418C46.0607 50.6023 46.0607 50.8626 45.9955 51.1231C45.9467 51.3021 45.8327 51.416 45.6537 51.4649C44.612 51.53 43.5704 51.53 42.5287 51.4649C42.2342 51.3155 42.104 51.0714 42.1381 50.7324C42.1168 50.3842 42.2471 50.1238 42.5287 49.9512Z" fill="url(#paint6_linear_755_3193)"/>
<path opacity="0.976" fill-rule="evenodd" clip-rule="evenodd" d="M53.4662 49.9512C54.7687 49.9349 56.0708 49.9512 57.3725 50C57.5515 50.0488 57.6655 50.1628 57.7143 50.3418C57.7794 50.6023 57.7794 50.8626 57.7143 51.1231C57.6655 51.3021 57.5515 51.416 57.3725 51.4649C56.0704 51.53 54.7683 51.53 53.4662 51.4649C53.1717 51.3155 53.0415 51.0714 53.0756 50.7324C53.0543 50.3842 53.1846 50.1238 53.4662 49.9512Z" fill="url(#paint7_linear_755_3193)"/>
<path opacity="0.989" fill-rule="evenodd" clip-rule="evenodd" d="M48.7787 54.6387C51.6435 54.6224 54.5081 54.6387 57.3725 54.6875C57.667 54.8368 57.7972 55.081 57.7631 55.4199C57.7972 55.7589 57.667 56.003 57.3725 56.1524C54.5079 56.2175 51.6433 56.2175 48.7787 56.1524C48.4842 56.003 48.354 55.7589 48.3881 55.4199C48.3668 55.0717 48.4971 54.8113 48.7787 54.6387Z" fill="url(#paint8_linear_755_3193)"/>
<path opacity="0.983" fill-rule="evenodd" clip-rule="evenodd" d="M44.0912 59.3262C45.9145 59.3099 47.7373 59.3262 49.56 59.375C49.739 59.4238 49.853 59.5378 49.9018 59.7168C49.9669 59.9773 49.9669 60.2376 49.9018 60.4981C49.853 60.6771 49.739 60.791 49.56 60.8399C47.737 60.905 45.9142 60.905 44.0912 60.8399C43.7967 60.6905 43.6665 60.4464 43.7006 60.1074C43.6793 59.7592 43.8096 59.4988 44.0912 59.3262Z" fill="url(#paint9_linear_755_3193)"/>
<path opacity="0.98" fill-rule="evenodd" clip-rule="evenodd" d="M52.685 59.3262C54.2478 59.3099 55.8103 59.3262 57.3725 59.375C57.5515 59.4238 57.6655 59.5378 57.7143 59.7168C57.7794 59.9773 57.7794 60.2376 57.7143 60.4981C57.6655 60.6771 57.5515 60.791 57.3725 60.8399C55.81 60.905 54.2475 60.905 52.685 60.8399C52.3905 60.6905 52.2603 60.4464 52.2944 60.1074C52.2731 59.7592 52.4034 59.4988 52.685 59.3262Z" fill="url(#paint10_linear_755_3193)"/>
</g>
<defs>
<linearGradient id="paint0_linear_755_3193" x1="14.1258" y1="53.2304" x2="74.2074" y2="53.2304" gradientUnits="userSpaceOnUse">
<stop stop-color="#57CBFF"/>
<stop offset="0.904" stop-color="#199BD5"/>
</linearGradient>
<linearGradient id="paint1_linear_755_3193" x1="32.6318" y1="38.8705" x2="61.6714" y2="38.8705" gradientUnits="userSpaceOnUse">
<stop stop-color="#57CBFF"/>
<stop offset="0.904" stop-color="#199BD5"/>
</linearGradient>
<linearGradient id="paint2_linear_755_3193" x1="47.8577" y1="41.4613" x2="54.6381" y2="41.4613" gradientUnits="userSpaceOnUse">
<stop stop-color="#57CBFF"/>
<stop offset="0.904" stop-color="#199BD5"/>
</linearGradient>
<linearGradient id="paint3_linear_755_3193" x1="32.638" y1="55.5595" x2="61.6755" y2="55.5595" gradientUnits="userSpaceOnUse">
<stop stop-color="#57CBFF"/>
<stop offset="0.904" stop-color="#199BD5"/>
</linearGradient>
<linearGradient id="paint4_linear_755_3193" x1="37.8595" y1="52.0291" x2="39.795" y2="52.0291" gradientUnits="userSpaceOnUse">
<stop stop-color="#57CBFF"/>
<stop offset="0.904" stop-color="#199BD5"/>
</linearGradient>
<linearGradient id="paint5_linear_755_3193" x1="40.2672" y1="46.1488" x2="49.9506" y2="46.1488" gradientUnits="userSpaceOnUse">
<stop stop-color="#57CBFF"/>
<stop offset="0.904" stop-color="#199BD5"/>
</linearGradient>
<linearGradient id="paint6_linear_755_3193" x1="41.1994" y1="50.8363" x2="46.0444" y2="50.8363" gradientUnits="userSpaceOnUse">
<stop stop-color="#57CBFF"/>
<stop offset="0.904" stop-color="#199BD5"/>
</linearGradient>
<linearGradient id="paint7_linear_755_3193" x1="51.9504" y1="50.8363" x2="57.7631" y2="50.8363" gradientUnits="userSpaceOnUse">
<stop stop-color="#57CBFF"/>
<stop offset="0.904" stop-color="#199BD5"/>
</linearGradient>
<linearGradient id="paint8_linear_755_3193" x1="46.1431" y1="55.5238" x2="57.7684" y2="55.5238" gradientUnits="userSpaceOnUse">
<stop stop-color="#57CBFF"/>
<stop offset="0.904" stop-color="#199BD5"/>
</linearGradient>
<linearGradient id="paint9_linear_755_3193" x1="42.2026" y1="60.2113" x2="49.9506" y2="60.2113" gradientUnits="userSpaceOnUse">
<stop stop-color="#57CBFF"/>
<stop offset="0.904" stop-color="#199BD5"/>
</linearGradient>
<linearGradient id="paint10_linear_755_3193" x1="50.9827" y1="60.2113" x2="57.7631" y2="60.2113" gradientUnits="userSpaceOnUse">
<stop stop-color="#57CBFF"/>
<stop offset="0.904" stop-color="#199BD5"/>
</linearGradient>
<clipPath id="clip0_755_3193">
<rect width="50" height="50" fill="white" transform="translate(25 25)"/>
</clipPath>
</defs>
</svg>
