<svg width="101" height="100" viewBox="0 0 101 100" fill="none" xmlns="http://www.w3.org/2000/svg">
<circle cx="50.5" cy="50" r="50" fill="#279ED3" fill-opacity="0.1"/>
<g clip-path="url(#clip0_755_3192)">
<path opacity="0.944" fill-rule="evenodd" clip-rule="evenodd" d="M30.7364 24.9512C42.0645 24.9512 53.3926 24.9512 64.7207 24.9512C66.5747 25.4879 67.6001 26.7249 67.7969 28.6621C67.8457 30.2568 67.862 31.8519 67.8457 33.4473C68.8194 33.5168 69.7309 33.7935 70.5801 34.2773C71.1745 34.9669 71.0444 35.4714 70.1895 35.791C67.1154 34.2549 64.495 34.8083 62.3282 37.4512C60.7678 40.3912 61.2399 42.9465 63.7442 45.1172C66.1226 46.5647 68.4338 46.4671 70.6778 44.8242C72.5052 43.0975 73.0423 41.0304 72.2891 38.623C72.0752 38.1309 71.8637 37.6426 71.6543 37.1582C71.8413 36.5099 72.2645 36.2983 72.9239 36.5234C73.9652 38.003 74.372 39.647 74.1446 41.4551C73.4891 44.9914 71.3895 47.0748 67.8457 47.7051C67.8457 49.6257 67.8457 51.5462 67.8457 53.4668C68.6927 53.4506 69.5391 53.4668 70.3848 53.5156C70.9219 53.6621 71.2637 54.0039 71.4102 54.541C71.4753 55.7129 71.4753 56.8848 71.4102 58.0566C71.2637 58.5938 70.9219 58.9355 70.3848 59.082C69.5391 59.1309 68.6927 59.1471 67.8457 59.1309C67.8457 61.2142 67.8457 63.2976 67.8457 65.3809C69.6364 65.3646 71.4268 65.3809 73.2168 65.4297C73.6146 65.5344 73.8913 65.7785 74.0469 66.1621C74.1401 68.2179 74.1076 70.2687 73.9493 72.3145C73.4335 73.6934 72.4732 74.5723 71.0684 74.9512C59.7403 74.9512 48.4121 74.9512 37.084 74.9512C35.4806 74.5031 34.4878 73.4615 34.1055 71.8262C34.0404 69.0593 34.0404 66.2923 34.1055 63.5254C34.5255 63.0424 34.9812 63.0099 35.4727 63.4277C35.5052 63.5254 35.5378 63.623 35.5703 63.7207C35.5728 66.4611 35.6379 69.1955 35.7657 71.9238C36.5631 73.3724 37.7188 73.7467 39.2325 73.0469C39.6212 72.7433 39.9305 72.3689 40.1602 71.9238C40.2855 70.0734 40.3505 68.218 40.3555 66.3574C40.4598 65.895 40.7365 65.5857 41.1856 65.4297C49.5514 65.3809 57.9173 65.3646 66.2832 65.3809C66.2832 63.2976 66.2832 61.2142 66.2832 59.1309C63.614 59.1309 60.9447 59.1309 58.2754 59.1309C58.2916 59.7177 58.2753 60.3036 58.2266 60.8887C57.7833 61.7095 57.1161 61.9536 56.2246 61.6211C54.2267 60.1432 52.2899 58.597 50.4141 56.9824C50.1507 56.3041 50.2647 55.702 50.7559 55.1758C52.6067 53.8135 54.4295 52.4137 56.2246 50.9766C57.1161 50.644 57.7833 50.8882 58.2266 51.709C58.2753 52.294 58.2916 52.88 58.2754 53.4668C58.7324 53.4506 59.188 53.4669 59.6426 53.5156C60.1113 53.8155 60.2251 54.2225 59.9844 54.7363C59.8962 54.8536 59.7824 54.9351 59.6426 54.9805C58.8288 55.0456 58.015 55.0456 57.2012 54.9805C56.9465 54.8459 56.8 54.6343 56.7618 54.3457C56.7452 53.7895 56.6963 53.2361 56.6153 52.6855C55.0549 53.8558 53.5249 55.0602 52.0254 56.2988C53.5249 57.5375 55.0549 58.7419 56.6153 59.9121C56.6963 59.3615 56.7452 58.8082 56.7618 58.252C56.8014 57.9596 56.9479 57.7479 57.2012 57.6172C61.4328 57.5684 65.6646 57.5521 69.8965 57.5684C69.8965 56.722 69.8965 55.8757 69.8965 55.0293C67.3573 55.0456 64.8182 55.0293 62.2793 54.9805C61.5545 54.5395 61.522 54.0512 62.1817 53.5156C63.5485 53.4668 64.9157 53.4505 66.2832 53.4668C66.2832 51.5462 66.2832 49.6257 66.2832 47.7051C62.2688 46.9944 60.1203 44.6019 59.8379 40.5273C60.0334 36.9781 61.8238 34.6669 65.209 33.5938C65.5619 33.5024 65.92 33.4535 66.2832 33.4473C66.3239 31.6854 66.275 29.9276 66.1368 28.1738C65.8601 27.3763 65.323 26.8392 64.5254 26.5625C59.4661 26.4501 54.4043 26.4013 49.3399 26.416C44.5059 26.4486 39.6719 26.4811 34.8379 26.5137C35.2447 27.0669 35.4888 27.6854 35.5703 28.3691C35.6192 32.5031 35.6355 36.6372 35.6192 40.7715C38.2884 40.7715 40.9578 40.7715 43.627 40.7715C43.6108 40.1847 43.6271 39.5987 43.6758 39.0137C44.1191 38.1929 44.7864 37.9487 45.6778 38.2812C47.6757 39.7592 49.6125 41.3054 51.4883 42.9199C51.7517 43.5982 51.6377 44.2004 51.1465 44.7266C49.3236 46.1263 47.5007 47.5261 45.6778 48.9258C44.7864 49.2583 44.1191 49.0142 43.6758 48.1934C43.6271 47.6083 43.6108 47.0224 43.627 46.4355C40.9578 46.4355 38.2884 46.4355 35.6192 46.4355C35.6355 51.2533 35.6192 56.0711 35.5703 60.8887C35.377 61.4166 35.0026 61.5956 34.4473 61.4258C34.3334 61.3118 34.2194 61.1979 34.1055 61.084C34.0567 56.2013 34.0404 51.3185 34.0567 46.4355C33.2097 46.4518 32.3633 46.4355 31.5176 46.3867C30.9805 46.2402 30.6387 45.8984 30.4922 45.3613C30.4271 44.1895 30.4271 43.0176 30.4922 41.8457C30.6387 41.3086 30.9805 40.9668 31.5176 40.8203C32.3633 40.7715 33.2097 40.7553 34.0567 40.7715C34.0567 38.6882 34.0567 36.6048 34.0567 34.5215C32.2335 34.5378 30.4106 34.5215 28.5879 34.4727C28.2911 34.3719 28.047 34.1929 27.8555 33.9355C27.7451 32.9332 27.6962 31.9241 27.709 30.9082C27.6986 29.8294 27.7474 28.7552 27.8555 27.6855C28.3493 26.2762 29.3096 25.3647 30.7364 24.9512ZM31.6153 26.416C32.9194 26.5644 33.717 27.2806 34.0078 28.5645C34.0567 30.0289 34.0729 31.4938 34.0567 32.959C32.4616 32.959 30.8666 32.959 29.2715 32.959C29.2553 31.4287 29.2715 29.8987 29.3203 28.3691C29.6827 27.2416 30.4477 26.5906 31.6153 26.416ZM45.1895 39.9902C46.8064 41.1183 48.3689 42.3227 49.877 43.6035C48.3775 44.8422 46.8475 46.0466 45.2871 47.2168C45.2061 46.6662 45.1573 46.1129 45.1407 45.5566C45.1024 45.2681 44.9559 45.0564 44.7012 44.9219C40.4696 44.873 36.2378 44.8567 32.0059 44.873C32.0059 44.0267 32.0059 43.1804 32.0059 42.334C36.2378 42.3503 40.4696 42.334 44.7012 42.2852C44.9545 42.1544 45.101 41.9428 45.1407 41.6504C45.1894 41.0979 45.2057 40.5445 45.1895 39.9902ZM41.8692 66.9434C52.0906 66.9434 62.3119 66.9434 72.5332 66.9434C72.5495 68.5062 72.5332 70.0687 72.4844 71.6309C72.2496 72.4841 71.7125 73.0538 70.8731 73.3398C65.7976 73.4522 60.7195 73.5011 55.6387 73.4863C50.7884 73.47 45.9382 73.4538 41.0879 73.4375C41.4506 72.9562 41.6948 72.419 41.8203 71.8262C41.8692 70.1989 41.8855 68.5713 41.8692 66.9434Z" fill="url(#paint0_linear_755_3192)"/>
<path opacity="0.932" fill-rule="evenodd" clip-rule="evenodd" d="M38.9401 30.0293C44.3438 30.013 49.7475 30.0293 55.151 30.0781C55.9236 30.4253 56.0212 30.9136 55.444 31.543C49.845 31.6081 44.246 31.6081 38.6471 31.543C38.0759 30.8997 38.1736 30.3951 38.9401 30.0293Z" fill="url(#paint1_linear_755_3192)"/>
<path opacity="0.933" fill-rule="evenodd" clip-rule="evenodd" d="M38.9388 34.7168C44.3425 34.7005 49.7462 34.7168 55.1498 34.7656C55.9233 35.1177 56.021 35.606 55.4427 36.2305C49.8438 36.2956 44.2448 36.2956 38.6459 36.2305C38.0737 35.592 38.1713 35.0874 38.9388 34.7168Z" fill="url(#paint2_linear_755_3192)"/>
<path opacity="0.926" fill-rule="evenodd" clip-rule="evenodd" d="M66.6739 35.7909C67.0745 35.7195 67.4163 35.8172 67.6992 36.0839C67.8379 37.3149 67.8867 38.5519 67.8457 39.7948C68.4976 39.7786 69.1487 39.7948 69.7989 39.8437C70.2906 40.1379 70.4045 40.5448 70.1406 41.0644C70.0263 41.2004 69.8798 41.2818 69.7012 41.3085C68.7246 41.3736 67.7481 41.3736 66.7715 41.3085C66.5971 41.2318 66.4506 41.118 66.3321 40.9667C66.2669 39.3717 66.2669 37.7766 66.3321 36.1815C66.3994 36.0009 66.5133 35.8706 66.6739 35.7909Z" fill="url(#paint3_linear_755_3192)"/>
<path opacity="0.924" fill-rule="evenodd" clip-rule="evenodd" d="M38.7447 50.8301C41.6745 50.8138 44.6042 50.8301 47.5337 50.8789C48.0254 51.1732 48.1394 51.5801 47.8755 52.0996C47.7612 52.2357 47.6147 52.3171 47.4361 52.3438C44.5715 52.4089 41.7069 52.4089 38.8423 52.3438C38.2615 52.1062 38.115 51.6992 38.4029 51.1231C38.5147 51.0121 38.6287 50.9145 38.7447 50.8301Z" fill="url(#paint4_linear_755_3192)"/>
<path opacity="0.923" fill-rule="evenodd" clip-rule="evenodd" d="M38.7437 55.5176C41.6736 55.5013 44.6033 55.5176 47.5327 55.5664C48.0244 55.8607 48.1384 56.2676 47.8745 56.7871C47.7864 56.9044 47.6725 56.9859 47.5327 57.0313C44.6031 57.0964 41.6734 57.0964 38.7437 57.0313C38.252 56.737 38.138 56.3301 38.4019 55.8106C38.5137 55.6996 38.6277 55.602 38.7437 55.5176Z" fill="url(#paint5_linear_755_3192)"/>
<path opacity="0.926" fill-rule="evenodd" clip-rule="evenodd" d="M38.7437 60.2051C42.65 60.1888 46.5563 60.2051 50.4624 60.2539C50.9541 60.5482 51.0681 60.9551 50.8042 61.4746C50.716 61.5919 50.6022 61.6734 50.4624 61.7188C46.5562 61.7839 42.6499 61.7839 38.7437 61.7188C38.252 61.4245 38.138 61.0176 38.4019 60.4981C38.5137 60.3871 38.6277 60.2895 38.7437 60.2051Z" fill="url(#paint6_linear_755_3192)"/>
</g>
<defs>
<linearGradient id="paint0_linear_755_3192" x1="16.6108" y1="53.3603" x2="74.2057" y2="53.3603" gradientUnits="userSpaceOnUse">
<stop stop-color="#57CBFF"/>
<stop offset="0.904" stop-color="#199BD5"/>
</linearGradient>
<linearGradient id="paint1_linear_755_3192" x1="34.0972" y1="30.9144" x2="55.8143" y2="30.9144" gradientUnits="userSpaceOnUse">
<stop stop-color="#57CBFF"/>
<stop offset="0.904" stop-color="#199BD5"/>
</linearGradient>
<linearGradient id="paint2_linear_755_3192" x1="34.0949" y1="35.602" x2="55.8137" y2="35.602" gradientUnits="userSpaceOnUse">
<stop stop-color="#57CBFF"/>
<stop offset="0.904" stop-color="#199BD5"/>
</linearGradient>
<linearGradient id="paint3_linear_755_3192" x1="65.3297" y1="38.9439" x2="70.2789" y2="38.9439" gradientUnits="userSpaceOnUse">
<stop stop-color="#57CBFF"/>
<stop offset="0.904" stop-color="#199BD5"/>
</linearGradient>
<linearGradient id="paint4_linear_755_3192" x1="35.9321" y1="51.7152" x2="48.0137" y2="51.7152" gradientUnits="userSpaceOnUse">
<stop stop-color="#57CBFF"/>
<stop offset="0.904" stop-color="#199BD5"/>
</linearGradient>
<linearGradient id="paint5_linear_755_3192" x1="35.9372" y1="56.4027" x2="48.0128" y2="56.4027" gradientUnits="userSpaceOnUse">
<stop stop-color="#57CBFF"/>
<stop offset="0.904" stop-color="#199BD5"/>
</linearGradient>
<linearGradient id="paint6_linear_755_3192" x1="35.2381" y1="61.0902" x2="50.9424" y2="61.0902" gradientUnits="userSpaceOnUse">
<stop stop-color="#57CBFF"/>
<stop offset="0.904" stop-color="#199BD5"/>
</linearGradient>
<clipPath id="clip0_755_3192">
<rect width="50" height="50" fill="white" transform="translate(26 25)"/>
</clipPath>
</defs>
</svg>
