<svg width="101" height="100" viewBox="0 0 101 100" fill="none" xmlns="http://www.w3.org/2000/svg">
<circle cx="50.5" cy="50" r="50" fill="#279ED3" fill-opacity="0.1"/>
<g clip-path="url(#clip0_751_2869)">
<path opacity="0.946" fill-rule="evenodd" clip-rule="evenodd" d="M43.0293 24.9512C44.3313 24.9512 45.6335 24.9512 46.9355 24.9512C55.2406 26.1668 60.8233 30.7241 63.6836 38.623C65.3651 44.5028 64.6002 50.0366 61.3887 55.2246C65.7493 59.6341 70.1275 64.0286 74.5234 68.4082C74.9484 68.9434 75.2577 69.5293 75.4512 70.166C75.4512 70.752 75.4512 71.3379 75.4512 71.9238C74.9954 73.4863 73.9863 74.4954 72.4238 74.9512C71.8379 74.9512 71.252 74.9512 70.666 74.9512C70.0293 74.7577 69.4434 74.4484 68.9082 74.0234C64.5286 69.6275 60.1341 65.2493 55.7246 60.8887C49.8431 64.4582 43.6907 64.9953 37.2676 62.5C30.4382 59.2752 26.4994 53.9203 25.4512 46.4355C25.4512 45.1335 25.4512 43.8313 25.4512 42.5293C26.6668 34.2242 31.2241 28.6416 39.123 25.7812C40.4189 25.4083 41.721 25.1316 43.0293 24.9512ZM43.127 27.002C50.7183 26.6058 56.4637 29.6331 60.3633 36.084C62.6459 40.4217 63.1016 44.9464 61.7305 49.6582C59.1858 56.7341 54.1891 60.8193 46.7402 61.9141C39.1853 62.3283 33.4723 59.3173 29.6016 52.8809C26.8021 47.2819 26.8021 41.6829 29.6016 36.084C32.6531 30.9025 37.1615 27.8751 43.127 27.002ZM60.0215 56.9824C60.9908 57.7888 61.9022 58.6677 62.7559 59.6191C61.9746 60.5957 61.0957 61.4746 60.1191 62.2559C59.2077 61.4095 58.3288 60.5306 57.4824 59.6191C58.3966 58.8027 59.243 57.9238 60.0215 56.9824ZM64.2207 61.084C67.147 63.9614 70.0604 66.8586 72.9609 69.7754C73.7695 71.1022 73.4929 72.1276 72.1309 72.8516C71.4466 73.0041 70.828 72.8739 70.2754 72.4609C67.3782 69.5638 64.4812 66.6667 61.584 63.7695C62.548 62.952 63.427 62.0568 64.2207 61.084Z" fill="url(#paint0_linear_751_2869)"/>
<path opacity="0.943" fill-rule="evenodd" clip-rule="evenodd" d="M43.2243 28.8573C50.0175 28.4529 55.177 31.1222 58.7028 36.8651C60.758 40.7617 61.1812 44.8306 59.9723 49.0721C57.7769 55.3882 53.3661 59.0504 46.7399 60.0585C39.9444 60.5104 34.7849 57.8574 31.2614 52.0995C29.2062 48.2029 28.783 44.1339 29.9919 39.8924C32.2099 33.5834 36.6208 29.905 43.2243 28.8573ZM43.4196 30.9081C40.7696 31.2888 38.3932 32.3142 36.2907 33.9842C31.8376 38.0588 30.4378 43.0067 32.0915 48.828C34.0986 54.0642 37.8746 57.1241 43.4196 58.0077C49.195 58.3834 53.6384 56.1536 56.7497 51.3182C59.1586 46.7609 59.1586 42.2037 56.7497 37.6463C53.636 32.8261 49.1927 30.58 43.4196 30.9081Z" fill="url(#paint1_linear_751_2869)"/>
<path opacity="0.938" fill-rule="evenodd" clip-rule="evenodd" d="M44.4945 32.7637C49.9806 32.7626 53.8054 35.269 55.9692 40.2832C56.0506 41.4221 55.546 41.829 54.4555 41.5039C54.3415 41.3899 54.2277 41.2761 54.1137 41.1621C52.4177 37.1245 49.3741 34.9924 44.9828 34.7656C44.1207 34.6168 43.8115 34.1122 44.0551 33.252C44.1885 33.0701 44.335 32.9074 44.4945 32.7637Z" fill="url(#paint2_linear_751_2869)"/>
<path opacity="0.891" fill-rule="evenodd" clip-rule="evenodd" d="M55.2365 43.5059C56.3912 43.3422 56.8632 43.8305 56.6525 44.9708C56.2956 45.4371 55.8236 45.5836 55.2365 45.4102C54.7702 45.0533 54.6237 44.5813 54.797 43.9942C54.9304 43.8124 55.0769 43.6497 55.2365 43.5059Z" fill="url(#paint3_linear_751_2869)"/>
</g>
<defs>
<linearGradient id="paint0_linear_751_2869" x1="13.5194" y1="53.3603" x2="75.4512" y2="53.3603" gradientUnits="userSpaceOnUse">
<stop stop-color="#57CBFF"/>
<stop offset="0.904" stop-color="#199BD5"/>
</linearGradient>
<linearGradient id="paint1_linear_751_2869" x1="21.8454" y1="46.596" x2="60.6439" y2="46.596" gradientUnits="userSpaceOnUse">
<stop stop-color="#57CBFF"/>
<stop offset="0.904" stop-color="#199BD5"/>
</linearGradient>
<linearGradient id="paint2_linear_751_2869" x1="41.1102" y1="37.7912" x2="55.9776" y2="37.7912" gradientUnits="userSpaceOnUse">
<stop stop-color="#57CBFF"/>
<stop offset="0.904" stop-color="#199BD5"/>
</linearGradient>
<linearGradient id="paint3_linear_751_2869" x1="54.2553" y1="44.6146" x2="56.7013" y2="44.6146" gradientUnits="userSpaceOnUse">
<stop stop-color="#57CBFF"/>
<stop offset="0.904" stop-color="#199BD5"/>
</linearGradient>
<clipPath id="clip0_751_2869">
<rect width="50" height="50" fill="white" transform="translate(25.5 25)"/>
</clipPath>
</defs>
</svg>
