<svg width="25" height="25" viewBox="0 0 25 25" fill="none" xmlns="http://www.w3.org/2000/svg">
<path opacity="0.977" fill-rule="evenodd" clip-rule="evenodd" d="M4.41862 2.46581C5.95432 2.35087 6.90647 3.03447 7.27507 4.51659C7.37453 5.96224 6.73166 6.88187 5.34636 7.27538C3.83213 7.42049 2.87998 6.76131 2.48991 5.29784C2.37366 3.82853 3.01657 2.88452 4.41862 2.46581Z" fill="white"/>
<path opacity="0.987" fill-rule="evenodd" clip-rule="evenodd" d="M17.1152 8.76464C18.2653 8.70126 19.3558 8.92099 20.3867 9.42382C21.1662 9.92709 21.7115 10.6188 22.0225 11.499C22.2794 12.276 22.4259 13.0735 22.4619 13.8916C22.4863 16.7561 22.4945 19.6207 22.4863 22.4853C21.0866 22.4853 19.6869 22.4853 18.2871 22.4853C18.2953 19.8974 18.2871 17.3095 18.2627 14.7217C18.1126 12.8946 17.1442 12.1703 15.3574 12.5488C14.531 12.8385 14.0346 13.4163 13.8682 14.2822C13.8236 14.4919 13.7911 14.7035 13.7705 14.917C13.7461 17.4397 13.7379 19.9625 13.7461 22.4853C12.3463 22.4853 10.9466 22.4853 9.54688 22.4853C9.54688 18.0257 9.54688 13.5661 9.54688 9.10644C10.8815 9.10644 12.2162 9.10644 13.5508 9.10644C13.5426 9.70888 13.5508 10.3111 13.5752 10.9131C14.1751 9.90746 15.0459 9.24828 16.1875 8.93554C16.5019 8.86767 16.8111 8.81068 17.1152 8.76464Z" fill="white"/>
<path opacity="0.986" fill-rule="evenodd" clip-rule="evenodd" d="M2.75781 9.10645C4.15755 9.10645 5.55728 9.10645 6.95703 9.10645C6.95703 13.5661 6.95703 18.0257 6.95703 22.4854C5.55728 22.4854 4.15755 22.4854 2.75781 22.4854C2.75781 18.0257 2.75781 13.5661 2.75781 9.10645Z" fill="white"/>
</svg>
