<svg width="18" height="19" viewBox="0 0 18 19" fill="none" xmlns="http://www.w3.org/2000/svg">
<g clip-path="url(#clip0_708_11611)">
<path opacity="0.966" fill-rule="evenodd" clip-rule="evenodd" d="M0.158203 0.482422C1.92773 0.482422 3.69728 0.482422 5.4668 0.482422C6.95496 2.68503 8.46081 4.87643 9.98438 7.05664C11.8726 4.86971 13.7535 2.67832 15.627 0.482422C16.166 0.482422 16.7051 0.482422 17.2441 0.482422C15.0653 3.0247 12.8856 5.56767 10.7051 8.11133C13.0732 11.569 15.4403 15.026 17.8066 18.4824C16.0371 18.4824 14.2676 18.4824 12.498 18.4824C10.9179 16.1579 9.33005 13.8376 7.73438 11.5215C5.74066 13.8373 3.75434 16.1576 1.77539 18.4824C1.23633 18.4824 0.697264 18.4824 0.158203 18.4824C2.43645 15.8115 4.72159 13.1455 7.01367 10.4844C4.7327 7.14692 2.44756 3.81294 0.158203 0.482422ZM2.33789 1.71289C3.11732 1.66619 3.90248 1.66619 4.69336 1.71289C8.32489 6.9311 11.9694 12.1401 15.627 17.3398C14.8415 17.3691 14.0564 17.3633 13.2715 17.3223C9.62617 12.1168 5.98163 6.9137 2.33789 1.71289Z" fill="white"/>
</g>
<defs>
<clipPath id="clip0_708_11611">
<rect width="18" height="18" fill="white" transform="translate(0 0.5)"/>
</clipPath>
</defs>
</svg>
